<svg id="colour-white-horizontal" xmlns="http://www.w3.org/2000/svg" viewBox="0 0 748.39 305.62"><defs><style>.cls-1{fill:#fff;}.cls-2{fill:#624cc1;}</style></defs><title>orchestra-logo-header</title><path class="cls-1" d="M433.2,280.42a20.93,20.93,0,0,1-8.22-7.77,22.34,22.34,0,0,1,0-22.26,20.93,20.93,0,0,1,8.22-7.77,26,26,0,0,1,23.55,0,21.42,21.42,0,0,1,0,37.8,26,26,0,0,1-23.55,0Zm18.51-7.17a12.27,12.27,0,0,0,4.71-4.77,15,15,0,0,0,0-13.92,12.27,12.27,0,0,0-4.71-4.77,14.06,14.06,0,0,0-13.44,0,12.27,12.27,0,0,0-4.71,4.77,15,15,0,0,0,0,13.92,12.27,12.27,0,0,0,4.71,4.77,14.06,14.06,0,0,0,13.44,0Z" transform="translate(-64.16 -112.19)"/><path class="cls-1" d="M502.05,282.52l-8.1-11.7H485v11.7h-9.72v-42h18.18a23.33,23.33,0,0,1,9.69,1.86,14.4,14.4,0,0,1,6.33,5.28,14.55,14.55,0,0,1,2.22,8.1A13.68,13.68,0,0,1,503.07,269l9.42,13.5Zm-2.46-32.19q-2.28-1.89-6.66-1.89H485v14.64h7.92q4.38,0,6.66-1.92a7.57,7.57,0,0,0,0-10.83Z" transform="translate(-64.16 -112.19)"/><path class="cls-1" d="M527.88,280.45a20.82,20.82,0,0,1-8.16-7.74,22.57,22.57,0,0,1,0-22.38,20.82,20.82,0,0,1,8.16-7.74,26,26,0,0,1,21.54-.87,19.77,19.77,0,0,1,7.41,5.52L550.59,253A13.42,13.42,0,0,0,540,248.08a14,14,0,0,0-7,1.71,12.16,12.16,0,0,0-4.77,4.77,15,15,0,0,0,0,13.92,12.16,12.16,0,0,0,4.77,4.77,14,14,0,0,0,7,1.71,13.35,13.35,0,0,0,10.56-5l6.24,5.76a19.45,19.45,0,0,1-7.44,5.58,24.69,24.69,0,0,1-9.9,1.92A24.12,24.12,0,0,1,527.88,280.45Z" transform="translate(-64.16 -112.19)"/><path class="cls-1" d="M601.89,240.52v42h-9.72V265.3H573.09v17.22h-9.72v-42h9.72v16.56h19.08V240.52Z" transform="translate(-64.16 -112.19)"/><path class="cls-1" d="M644.37,274.72v7.8H611.85v-42h31.74v7.8H621.51v9.12H641V265h-19.5v9.72Z" transform="translate(-64.16 -112.19)"/><path class="cls-1" d="M656.28,281.89a22.59,22.59,0,0,1-7.47-3.51l3.3-7.32a22.39,22.39,0,0,0,6.42,3.18,24.11,24.11,0,0,0,7.44,1.2q4.14,0,6.12-1.23a3.72,3.72,0,0,0,2-3.27,3.13,3.13,0,0,0-1.17-2.49,8.87,8.87,0,0,0-3-1.59q-1.83-.6-4.95-1.32a68.43,68.43,0,0,1-7.86-2.28,12.77,12.77,0,0,1-5.25-3.66,9.88,9.88,0,0,1-2.19-6.72,11.69,11.69,0,0,1,2-6.63,13.32,13.32,0,0,1,6-4.71,24.36,24.36,0,0,1,9.75-1.74,32.28,32.28,0,0,1,7.86,1,23.22,23.22,0,0,1,6.72,2.76l-3,7.38a23.42,23.42,0,0,0-11.64-3.3q-4.08,0-6,1.32a4,4,0,0,0-2,3.48,3.4,3.4,0,0,0,2.25,3.21,35.33,35.33,0,0,0,6.87,2.07,68.43,68.43,0,0,1,7.86,2.28,13,13,0,0,1,5.25,3.6,9.65,9.65,0,0,1,2.19,6.66,11.47,11.47,0,0,1-2,6.57,13.5,13.5,0,0,1-6,4.71,24.58,24.58,0,0,1-9.78,1.74A34.36,34.36,0,0,1,656.28,281.89Z" transform="translate(-64.16 -112.19)"/><path class="cls-1" d="M698.49,248.44H685.05v-7.92h36.6v7.92H708.21v34.08h-9.72Z" transform="translate(-64.16 -112.19)"/><path class="cls-1" d="M753.63,282.52l-8.1-11.7h-8.94v11.7h-9.72v-42h18.18a23.33,23.33,0,0,1,9.69,1.86,14.4,14.4,0,0,1,6.33,5.28,14.55,14.55,0,0,1,2.22,8.1A13.68,13.68,0,0,1,754.65,269l9.42,13.5Zm-2.46-32.19q-2.28-1.89-6.66-1.89h-7.92v14.64h7.92q4.38,0,6.66-1.92a7.57,7.57,0,0,0,0-10.83Z" transform="translate(-64.16 -112.19)"/><path class="cls-1" d="M798.63,273.52h-19.5l-3.72,9h-10l18.72-42h9.6l18.78,42h-10.2Zm-3.06-7.38-6.66-16.08-6.66,16.08Z" transform="translate(-64.16 -112.19)"/><g id="orchestra"><rect id="big-part" class="cls-2" x="157.98" y="104.77" width="199" height="320.46" rx="97.34" ry="97.34" transform="translate(-162.16 52.05) rotate(-30)"/><rect id="middle-part" class="cls-2" x="84.48" y="306.71" width="25" height="105.58" rx="12" ry="12" transform="translate(-230.92 -15.54) rotate(-30)"/><rect id="small-part" class="cls-2" x="122.98" y="261.5" width="25" height="147" rx="12" ry="12" transform="matrix(0.87, -0.5, 0.5, 0.87, -213.51, 0.43)"/></g></svg>