<svg id="consumption" xmlns="http://www.w3.org/2000/svg" xmlns:xlink="http://www.w3.org/1999/xlink" viewBox="0 0 901.47 563.78"><defs><style>.cls-1{fill:url(#linear-gradient);}.cls-2{fill:url(#linear-gradient-2);}.cls-3{fill:url(#linear-gradient-3);}.cls-4{fill:url(#linear-gradient-4);}.cls-5{fill:url(#linear-gradient-5);}.cls-6{fill:url(#linear-gradient-6);}.cls-7{fill:url(#linear-gradient-7);}.cls-8{fill:url(#linear-gradient-8);}.cls-9{fill:#06040c;}</style><linearGradient id="linear-gradient" x1="134.78" y1="417.19" x2="894.19" y2="-342.22" gradientUnits="userSpaceOnUse"><stop offset="0" stop-color="#624cc1"/><stop offset="1" stop-color="#00d1b2"/></linearGradient><linearGradient id="linear-gradient-2" x1="184.39" y1="490.46" x2="678.9" y2="-4.05" xlink:href="#linear-gradient"/><linearGradient id="linear-gradient-3" x1="326.33" y1="703.98" x2="820.84" y2="209.48" xlink:href="#linear-gradient"/><linearGradient id="linear-gradient-4" x1="-377" y1="1490.97" x2="1074.25" y2="39.73" xlink:href="#linear-gradient"/><linearGradient id="linear-gradient-5" x1="-260.44" y1="856.89" x2="2019.86" y2="-1423.42" xlink:href="#linear-gradient"/><linearGradient id="linear-gradient-6" x1="-1053.87" y1="1985.28" x2="1460.86" y2="-529.44" xlink:href="#linear-gradient"/><linearGradient id="linear-gradient-7" x1="290.57" y1="650.19" x2="785.08" y2="155.68" xlink:href="#linear-gradient"/><linearGradient id="linear-gradient-8" x1="-143.85" y1="892.4" x2="1410.32" y2="-661.76" xlink:href="#linear-gradient"/></defs><title>consumption</title><rect class="cls-1" x="139.27" y="325.2" width="71.99" height="103" rx="36" ry="36"/><rect class="cls-2" x="228.15" y="393.2" width="71.99" height="35" rx="17.5" ry="17.5"/><rect class="cls-3" x="583.62" y="393.2" width="71.99" height="35" rx="17.5" ry="17.5"/><rect class="cls-4" x="761.77" y="204.2" width="71.99" height="224" rx="36" ry="36"/><rect class="cls-5" x="316.75" y="59.2" width="71.99" height="369" rx="36" ry="36"/><rect class="cls-6" x="672.22" y="18.2" width="71.99" height="410" rx="36" ry="36"/><rect class="cls-7" x="494.06" y="393.2" width="71.99" height="35" rx="17.5" ry="17.5"/><rect class="cls-8" x="405.35" y="186.2" width="71.99" height="242" rx="36" ry="36"/><path class="cls-9" d="M28.47,180.8v16.8H26.1V182.89H22.31V180.8Z" transform="translate(-19.23 -179.8)"/><path class="cls-9" d="M35.47,196.78a6.91,6.91,0,0,1-2.44-3,12.49,12.49,0,0,1,0-9.21,6.91,6.91,0,0,1,2.44-3,6.62,6.62,0,0,1,7.06,0,6.82,6.82,0,0,1,2.43,3,12.36,12.36,0,0,1,0,9.21,6.82,6.82,0,0,1-2.43,3,6.62,6.62,0,0,1-7.06,0ZM42.24,194a10.13,10.13,0,0,0,0-9.6,4,4,0,0,0-6.48,0,10.13,10.13,0,0,0,0,9.6,4,4,0,0,0,6.48,0Z" transform="translate(-19.23 -179.8)"/><path class="cls-9" d="M54.13,191.68l-2.64,2.44v3.48h-2.3V179.8h2.3v11.42l6.94-6.34h2.78l-5.35,5.26,5.88,7.46H58.91Z" transform="translate(-19.23 -179.8)"/><path class="cls-9" d="M87.83,180.8l-5.62,16.8H79.69l-4.58-13.41L70.52,197.6H68l-5.61-16.8h2.47l4.54,13.66,4.72-13.66h2.21l4.64,13.73,4.63-13.73Z" transform="translate(-19.23 -179.8)"/><path class="cls-9" d="M101.42,186.17a5.52,5.52,0,0,1,1.43,4.11v7.32h-2.3v-7a3.94,3.94,0,0,0-.89-2.79,3.35,3.35,0,0,0-2.55-.93,4,4,0,0,0-3,1.09,4.26,4.26,0,0,0-1.08,3.13v6.55h-2.3V179.8h2.3v6.88A4.75,4.75,0,0,1,95,185.27a6.38,6.38,0,0,1,2.6-.51A5.23,5.23,0,0,1,101.42,186.17Z" transform="translate(-19.23 -179.8)"/><path class="cls-9" d="M33.36,363.86a4.48,4.48,0,0,1,1.69,3.7,5.14,5.14,0,0,1-.71,2.68,4.78,4.78,0,0,1-2.13,1.87,8.09,8.09,0,0,1-3.52.69,11,11,0,0,1-3.43-.54,7.58,7.58,0,0,1-2.74-1.5l1.11-1.9a6.4,6.4,0,0,0,2.2,1.31,8.15,8.15,0,0,0,2.84.49,4.78,4.78,0,0,0,2.94-.8,2.64,2.64,0,0,0,1-2.2,2.58,2.58,0,0,0-1.15-2.29,7.35,7.35,0,0,0-3.94-.78H23.75l.88-8.79h9.48v2.09H26.65l-.46,4.61h1.88Q31.67,362.5,33.36,363.86Z" transform="translate(-19.23 -179.8)"/><path class="cls-9" d="M43,366.68l-2.64,2.44v3.48H38.07V354.8h2.31v11.42l6.93-6.34H50.1l-5.35,5.26,5.88,7.46H47.79Z" transform="translate(-19.23 -179.8)"/><path class="cls-9" d="M76.71,355.8,71.1,372.6H68.58L64,359.19,59.41,372.6H56.84l-5.61-16.8H53.7l4.53,13.66L63,355.8h2.21l4.63,13.73,4.64-13.73Z" transform="translate(-19.23 -179.8)"/><path class="cls-9" d="M90.31,361.17a5.52,5.52,0,0,1,1.43,4.11v7.32H89.43v-7.05a3.94,3.94,0,0,0-.88-2.79,3.37,3.37,0,0,0-2.55-.93,4,4,0,0,0-3,1.09A4.26,4.26,0,0,0,82,366.05v6.55h-2.3V354.8H82v6.88a4.79,4.79,0,0,1,1.88-1.41,6.47,6.47,0,0,1,2.61-.51A5.24,5.24,0,0,1,90.31,361.17Z" transform="translate(-19.23 -179.8)"/><path class="cls-9" d="M30.47,496.38a4.44,4.44,0,0,1,1.29,3.28,4.76,4.76,0,0,1-2.87,4.45,8,8,0,0,1-3.49.68,11,11,0,0,1-3.45-.53,7.4,7.4,0,0,1-2.72-1.5l1.11-1.9a6.35,6.35,0,0,0,2.21,1.31,8.13,8.13,0,0,0,2.85.49,4.74,4.74,0,0,0,2.92-.79,2.61,2.61,0,0,0,1-2.19,2.55,2.55,0,0,0-1-2.16,5.24,5.24,0,0,0-3.12-.76H23.87v-1.68l4.22-5.19H20V487.8H31.09v1.64l-4.39,5.42A6,6,0,0,1,30.47,496.38Z" transform="translate(-19.23 -179.8)"/><path class="cls-9" d="M40,498.68l-2.64,2.44v3.48H35V486.79h2.3v11.43l6.94-6.34h2.78l-5.35,5.26,5.88,7.46H44.75Z" transform="translate(-19.23 -179.8)"/><path class="cls-9" d="M73.67,487.8l-5.62,16.8H65.53L61,491.19,56.36,504.6H53.79l-5.61-16.8h2.47l4.54,13.66,4.72-13.66h2.21l4.63,13.73,4.64-13.73Z" transform="translate(-19.23 -179.8)"/><path class="cls-9" d="M87.26,493.17a5.52,5.52,0,0,1,1.43,4.11v7.32h-2.3v-7.05a3.94,3.94,0,0,0-.89-2.79,3.35,3.35,0,0,0-2.55-.93,4,4,0,0,0-3,1.09,4.26,4.26,0,0,0-1.08,3.13v6.55h-2.3V486.79h2.3v6.89a4.75,4.75,0,0,1,1.89-1.41,6.38,6.38,0,0,1,2.6-.51A5.23,5.23,0,0,1,87.26,493.17Z" transform="translate(-19.23 -179.8)"/><path class="cls-9" d="M211.15,637.28l-11.88,11.88-1.68-1.68L208,637.07l-2.68-2.68,1.48-1.47Z" transform="translate(-19.23 -179.8)"/><path class="cls-9" d="M211.69,658.63l-1.48,1.47-8.53-8.53,1.15-1.16,9.5.17a8.24,8.24,0,0,0,2.66-.28,3.92,3.92,0,0,0,1.55-.94,2.45,2.45,0,0,0,.8-2.11,4.17,4.17,0,0,0-1.36-2.39,5.28,5.28,0,0,0-4.32-1.75L211.5,641a6.53,6.53,0,0,1,3.15.5,9.3,9.3,0,0,1,3,2,6.6,6.6,0,0,1,2.08,3.87,4.18,4.18,0,0,1-1.32,3.52,5.88,5.88,0,0,1-2.21,1.39,10.3,10.3,0,0,1-3.47.39l-7.13-.14Z" transform="translate(-19.23 -179.8)"/><path class="cls-9" d="M226.63,660.19a5,5,0,0,1-1.74,3.73l-5.43,5.43-1.54-1.54,1.19-1.19a3.76,3.76,0,0,1-2.13-.2,6.42,6.42,0,0,1-2.12-1.46,5.36,5.36,0,0,1-1.69-3.15,3.54,3.54,0,0,1,3.79-3.87,6,6,0,0,1,3.47,2l2.58,2.58.32-.33a2.91,2.91,0,0,0,1-2.22,3.59,3.59,0,0,0-1.24-2.36,6.94,6.94,0,0,0-1.82-1.3,5.66,5.66,0,0,0-2-.58l.54-1.9a7,7,0,0,1,2.52.8,10.24,10.24,0,0,1,2.35,1.76A5.75,5.75,0,0,1,226.63,660.19Zm-8.21,5a3.36,3.36,0,0,0,2.16-.2l1.26-1.25-2.51-2.52q-2.07-2.07-3.47-.67a1.78,1.78,0,0,0-.54,1.59,3.41,3.41,0,0,0,1.07,1.85A4.34,4.34,0,0,0,218.42,665.17Z" transform="translate(-19.23 -179.8)"/><path class="cls-9" d="M244.52,678.22a5.59,5.59,0,0,1-1.93,3.91l-5.17,5.18-1.63-1.63,5-5a4,4,0,0,0,1.36-2.57,3.12,3.12,0,0,0-1.06-2.39,3.65,3.65,0,0,0-2.74-1.19A4.34,4.34,0,0,0,235.4,676l-4.64,4.63L229.13,679l5-5a4,4,0,0,0,1.37-2.57,3.11,3.11,0,0,0-1.06-2.38,3.64,3.64,0,0,0-2.74-1.2,4.44,4.44,0,0,0-2.95,1.49L224.11,674l-1.63-1.63,9-9,1.56,1.56-1.34,1.34a4.41,4.41,0,0,1,2.35.23,6.16,6.16,0,0,1,2.18,1.45,5.6,5.6,0,0,1,1.44,2.29,4.18,4.18,0,0,1,0,2.5,4.8,4.8,0,0,1,2.64.19,6.52,6.52,0,0,1,2.48,1.6A5.2,5.2,0,0,1,244.52,678.22Z" transform="translate(-19.23 -179.8)"/><path class="cls-9" d="M249.77,688.93l4.57,4.57-1.41,1.41-4.57-4.57Z" transform="translate(-19.23 -179.8)"/><path class="cls-9" d="M268.35,706.61a4.46,4.46,0,0,1-1.4,3.23,4.8,4.8,0,0,1-2.35,1.33,5,5,0,0,1-2.83-.21,8,8,0,0,1-2.95-2,11.13,11.13,0,0,1-2.07-2.83,7.35,7.35,0,0,1-.85-3l2.12-.56a6.17,6.17,0,0,0,.64,2.49,8.25,8.25,0,0,0,1.67,2.37A4.72,4.72,0,0,0,263,709a2.57,2.57,0,0,0,2.28-.81,2.53,2.53,0,0,0,.8-2.25,5.25,5.25,0,0,0-1.66-2.75l-.95-.95L264.6,701l6.66-.68-5.72-5.72,1.47-1.48,7.84,7.84-1.15,1.16-6.94.73A6,6,0,0,1,268.35,706.61Z" transform="translate(-19.23 -179.8)"/><path class="cls-9" d="M280.06,713.62a5,5,0,0,1-1.74,3.72l-5.43,5.43-1.55-1.54,1.19-1.19a3.63,3.63,0,0,1-2.12-.2,6.32,6.32,0,0,1-2.12-1.46,5.31,5.31,0,0,1-1.69-3.15,3.54,3.54,0,0,1,3.78-3.87,6,6,0,0,1,3.47,2l2.58,2.58.32-.32a3,3,0,0,0,1-2.23,3.71,3.71,0,0,0-1.24-2.36,6.73,6.73,0,0,0-1.83-1.29,5.62,5.62,0,0,0-2-.59l.54-1.9a7,7,0,0,1,2.52.8,10,10,0,0,1,2.35,1.76A5.79,5.79,0,0,1,280.06,713.62Zm-8.22,5a3.39,3.39,0,0,0,2.17-.19l1.25-1.26-2.51-2.51c-1.38-1.38-2.54-1.61-3.46-.68a1.76,1.76,0,0,0-.55,1.59,3.38,3.38,0,0,0,1.07,1.85A4.22,4.22,0,0,0,271.84,718.59Z" transform="translate(-19.23 -179.8)"/><path class="cls-9" d="M297.94,731.64a5.54,5.54,0,0,1-1.92,3.91l-5.18,5.18-1.63-1.63,5-5a4,4,0,0,0,1.37-2.57,3.13,3.13,0,0,0-1.06-2.38,3.64,3.64,0,0,0-2.74-1.2,4.39,4.39,0,0,0-2.95,1.48l-4.63,4.64-1.63-1.63,5-5a4,4,0,0,0,1.36-2.57,3.12,3.12,0,0,0-1.06-2.39,3.65,3.65,0,0,0-2.74-1.19,4.34,4.34,0,0,0-2.94,1.48l-4.64,4.63-1.62-1.63,9-9,1.56,1.56-1.34,1.34a4.5,4.5,0,0,1,2.35.23,6.07,6.07,0,0,1,2.18,1.45,5.66,5.66,0,0,1,1.44,2.29,4.18,4.18,0,0,1,0,2.5,4.9,4.9,0,0,1,2.64.19,6.54,6.54,0,0,1,2.49,1.61A5.13,5.13,0,0,1,297.94,731.64Z" transform="translate(-19.23 -179.8)"/><path class="cls-9" d="M297.61,646.87a4.41,4.41,0,0,1-1.4,3.24,4.84,4.84,0,0,1-2.35,1.33,5,5,0,0,1-2.83-.21,8.1,8.1,0,0,1-2.95-2,11,11,0,0,1-2.06-2.82,7.41,7.41,0,0,1-.86-3l2.12-.56a6.47,6.47,0,0,0,.64,2.48,8.17,8.17,0,0,0,1.67,2.37,4.76,4.76,0,0,0,2.62,1.5,2.61,2.61,0,0,0,2.29-.8,2.54,2.54,0,0,0,.79-2.26,5.18,5.18,0,0,0-1.66-2.75l-.95-.95,1.19-1.19,6.65-.68-5.72-5.72,1.48-1.47,7.84,7.84L303,642.4l-6.94.73A6.05,6.05,0,0,1,297.61,646.87Z" transform="translate(-19.23 -179.8)"/><path class="cls-9" d="M309.32,653.88a5,5,0,0,1-1.74,3.73L302.15,663l-1.55-1.55,1.19-1.18a3.73,3.73,0,0,1-2.12-.21,6.27,6.27,0,0,1-2.12-1.46,5.26,5.26,0,0,1-1.69-3.14,3.54,3.54,0,0,1,3.79-3.87,6,6,0,0,1,3.47,2l2.58,2.58.32-.32a3,3,0,0,0,1-2.22,3.64,3.64,0,0,0-1.24-2.36A6.72,6.72,0,0,0,304,650a5.89,5.89,0,0,0-2-.59l.55-1.9a7,7,0,0,1,2.52.81,10,10,0,0,1,2.35,1.76A5.75,5.75,0,0,1,309.32,653.88Zm-8.21,5a3.36,3.36,0,0,0,2.16-.19l1.26-1.26L302,654.89c-1.38-1.38-2.53-1.6-3.46-.68a1.8,1.8,0,0,0-.54,1.6,3.41,3.41,0,0,0,1.07,1.85A4.23,4.23,0,0,0,301.11,658.85Z" transform="translate(-19.23 -179.8)"/><path class="cls-9" d="M327.21,671.9a5.61,5.61,0,0,1-1.93,3.92L320.1,681l-1.63-1.63,5-5a4,4,0,0,0,1.37-2.57,3.11,3.11,0,0,0-1.06-2.38,3.64,3.64,0,0,0-2.74-1.2,4.44,4.44,0,0,0-2.95,1.49l-4.63,4.63-1.63-1.63,5-5a4,4,0,0,0,1.37-2.57,3.13,3.13,0,0,0-1.06-2.38,3.64,3.64,0,0,0-2.74-1.2,4.39,4.39,0,0,0-2.95,1.48l-4.63,4.64-1.63-1.63,9-9,1.57,1.57L314.38,660a4.54,4.54,0,0,1,2.36.22,6.19,6.19,0,0,1,2.18,1.46,5.6,5.6,0,0,1,1.44,2.29,4.23,4.23,0,0,1,0,2.49,4.86,4.86,0,0,1,2.63.2,6.51,6.51,0,0,1,2.49,1.6A5.2,5.2,0,0,1,327.21,671.9Z" transform="translate(-19.23 -179.8)"/><path class="cls-9" d="M332.46,682.62l4.56,4.57-1.4,1.41L331.05,684Z" transform="translate(-19.23 -179.8)"/><path class="cls-9" d="M352,699.35a4.77,4.77,0,0,1-1.18,5.13,5,5,0,0,1-2.52,1.42,5.25,5.25,0,0,1-2.82-.2,6.83,6.83,0,0,1-2.62-1.68,6.46,6.46,0,0,1-2.15-5.23,9.44,9.44,0,0,1,3.08-5.68,10.62,10.62,0,0,1,4.09-2.68,6.83,6.83,0,0,1,4.09-.15,8.21,8.21,0,0,1,3.67,2.22,10,10,0,0,1,1.45,1.81,6.39,6.39,0,0,1,.81,1.84l-2,.68a5.75,5.75,0,0,0-1.71-2.84,5.29,5.29,0,0,0-4.05-1.75,6.72,6.72,0,0,0-4.39,2.28c-.18.18-.32.33-.41.44a4.56,4.56,0,0,1,2.57.24,7.35,7.35,0,0,1,4.06,4.15Zm-5.3,4.5a3,3,0,0,0,2.41-1,2.92,2.92,0,0,0,.93-2.41,4.18,4.18,0,0,0-1.36-2.59,4.37,4.37,0,0,0-1.72-1.12,3.39,3.39,0,0,0-1.8-.13,3,3,0,0,0-1.52.82,2.89,2.89,0,0,0-.81,1.48,3.31,3.31,0,0,0,.13,1.8,4.9,4.9,0,0,0,1.21,1.83A4,4,0,0,0,346.7,703.85Z" transform="translate(-19.23 -179.8)"/><path class="cls-9" d="M363.51,708.07a5,5,0,0,1-1.74,3.72l-5.43,5.43-1.55-1.54,1.19-1.19a3.63,3.63,0,0,1-2.12-.2,6.32,6.32,0,0,1-2.12-1.46,5.31,5.31,0,0,1-1.69-3.15,3.54,3.54,0,0,1,3.78-3.87,6,6,0,0,1,3.47,2l2.58,2.58.33-.32a3,3,0,0,0,1-2.23,3.71,3.71,0,0,0-1.24-2.36,6.58,6.58,0,0,0-1.83-1.29,5.62,5.62,0,0,0-2-.59l.54-1.9a6.87,6.87,0,0,1,2.52.81,9.52,9.52,0,0,1,2.35,1.75A5.76,5.76,0,0,1,363.51,708.07Zm-8.22,5a3.39,3.39,0,0,0,2.17-.19l1.25-1.26-2.51-2.51q-2.07-2.07-3.46-.68a1.76,1.76,0,0,0-.54,1.6,3.36,3.36,0,0,0,1.06,1.84A4.22,4.22,0,0,0,355.29,713Z" transform="translate(-19.23 -179.8)"/><path class="cls-9" d="M381.39,726.09a5.54,5.54,0,0,1-1.92,3.91l-5.18,5.18-1.63-1.63,5-5A4,4,0,0,0,379,726,3.17,3.17,0,0,0,378,723.6a3.66,3.66,0,0,0-2.74-1.19,4.39,4.39,0,0,0-3,1.48l-4.63,4.64L366,726.9l5-5a4,4,0,0,0,1.36-2.57A3.12,3.12,0,0,0,371.3,717a3.65,3.65,0,0,0-2.74-1.19,4.34,4.34,0,0,0-2.94,1.48L361,721.87l-1.63-1.62,9-9,1.56,1.56-1.34,1.34a4.5,4.5,0,0,1,2.35.23,6.07,6.07,0,0,1,2.18,1.45,5.66,5.66,0,0,1,1.44,2.29,4.1,4.1,0,0,1,0,2.5,4.9,4.9,0,0,1,2.64.19,6.54,6.54,0,0,1,2.49,1.61A5.13,5.13,0,0,1,381.39,726.09Z" transform="translate(-19.23 -179.8)"/><path class="cls-9" d="M386.58,645.92a4.83,4.83,0,0,1-1.18,5.14,5,5,0,0,1-2.52,1.41,5.18,5.18,0,0,1-2.83-.19,6.87,6.87,0,0,1-2.61-1.68,6.45,6.45,0,0,1-2.15-5.24,9.39,9.39,0,0,1,3.08-5.67,10.65,10.65,0,0,1,4.09-2.69,7,7,0,0,1,4.09-.15,8.24,8.24,0,0,1,3.67,2.23,10,10,0,0,1,1.45,1.8,6.31,6.31,0,0,1,.8,1.84l-2,.68a5.82,5.82,0,0,0-1.72-2.83,5.28,5.28,0,0,0-4.05-1.76,6.76,6.76,0,0,0-4.38,2.28c-.18.19-.32.33-.41.45a4.61,4.61,0,0,1,2.56.23,7.49,7.49,0,0,1,4.07,4.15Zm-5.31,4.51a3.23,3.23,0,0,0,3.35-3.36,4.25,4.25,0,0,0-1.36-2.6,4.53,4.53,0,0,0-1.72-1.11,3.39,3.39,0,0,0-1.8-.13,2.88,2.88,0,0,0-1.52.82,3,3,0,0,0-.82,1.47,3.41,3.41,0,0,0,.14,1.8,4.82,4.82,0,0,0,1.2,1.84A4,4,0,0,0,381.27,650.43Z" transform="translate(-19.23 -179.8)"/><path class="cls-9" d="M398.08,654.65a5,5,0,0,1-1.74,3.72l-5.43,5.43-1.54-1.54,1.19-1.19a3.63,3.63,0,0,1-2.12-.2,6.35,6.35,0,0,1-2.13-1.46,5.29,5.29,0,0,1-1.68-3.15,3.54,3.54,0,0,1,3.78-3.87,6,6,0,0,1,3.47,2l2.58,2.58.32-.33a2.91,2.91,0,0,0,1-2.22,3.59,3.59,0,0,0-1.24-2.36,6.94,6.94,0,0,0-1.82-1.3,5.6,5.6,0,0,0-2-.58l.54-1.9a7,7,0,0,1,2.52.8,10,10,0,0,1,2.35,1.76A5.75,5.75,0,0,1,398.08,654.65Zm-8.21,5a3.36,3.36,0,0,0,2.16-.2l1.26-1.25-2.51-2.51c-1.38-1.39-2.54-1.61-3.47-.68a1.78,1.78,0,0,0-.54,1.59,3.41,3.41,0,0,0,1.07,1.85A4.34,4.34,0,0,0,389.87,659.62Z" transform="translate(-19.23 -179.8)"/><path class="cls-9" d="M416,672.67a5.55,5.55,0,0,1-1.93,3.91l-5.17,5.18-1.63-1.63,5-5a4,4,0,0,0,1.36-2.57,3.12,3.12,0,0,0-1.06-2.39,3.65,3.65,0,0,0-2.74-1.19,4.34,4.34,0,0,0-2.94,1.48l-4.63,4.63-1.63-1.63,5-5a4,4,0,0,0,1.36-2.57,3.12,3.12,0,0,0-1.06-2.39,3.64,3.64,0,0,0-2.74-1.2,4.4,4.4,0,0,0-2.94,1.49l-4.64,4.63-1.63-1.63,9-9,1.56,1.56-1.34,1.34a4.41,4.41,0,0,1,2.35.23,6.16,6.16,0,0,1,2.18,1.45,5.66,5.66,0,0,1,1.44,2.29,4.18,4.18,0,0,1,0,2.5,4.8,4.8,0,0,1,2.64.19,6.43,6.43,0,0,1,2.48,1.61A5.14,5.14,0,0,1,416,672.67Z" transform="translate(-19.23 -179.8)"/><path class="cls-9" d="M421.22,683.39l4.57,4.56-1.41,1.41-4.57-4.57Z" transform="translate(-19.23 -179.8)"/><path class="cls-9" d="M444.79,696.73a9.44,9.44,0,0,1-3.08,5.68,10.62,10.62,0,0,1-4.09,2.68,6.91,6.91,0,0,1-4.09.15,8.21,8.21,0,0,1-3.67-2.22,10,10,0,0,1-1.45-1.81,6.52,6.52,0,0,1-.81-1.84l2-.68a5.93,5.93,0,0,0,1.73,2.85,5.24,5.24,0,0,0,4,1.75,6.78,6.78,0,0,0,4.38-2.29l.42-.42a4.58,4.58,0,0,1-2.57-.25,6.83,6.83,0,0,1-2.41-1.62,6.68,6.68,0,0,1-1.66-2.54,4.81,4.81,0,0,1-.18-2.7,4.89,4.89,0,0,1,1.38-2.41,4.94,4.94,0,0,1,2.52-1.42,5.1,5.1,0,0,1,2.81.19,6.72,6.72,0,0,1,2.61,1.67A6.46,6.46,0,0,1,444.79,696.73Zm-6.24,2a3.33,3.33,0,0,0,1.81.15,3,3,0,0,0,1.52-.82,3,3,0,0,0,.81-1.48,3.31,3.31,0,0,0-.14-1.8,4.83,4.83,0,0,0-1.22-1.85,4,4,0,0,0-2.52-1.27,3,3,0,0,0-2.4,1,3,3,0,0,0-.94,2.41,4.12,4.12,0,0,0,1.35,2.58A4.4,4.4,0,0,0,438.55,698.74Z" transform="translate(-19.23 -179.8)"/><path class="cls-9" d="M452.27,708.83a5,5,0,0,1-1.74,3.73L445.1,718l-1.54-1.55,1.18-1.18a3.73,3.73,0,0,1-2.12-.21,6.27,6.27,0,0,1-2.12-1.46,5.28,5.28,0,0,1-1.69-3.15,3.3,3.3,0,0,1,1-2.82,3.34,3.34,0,0,1,2.78-1,6,6,0,0,1,3.47,2l2.58,2.58.32-.32a3,3,0,0,0,1-2.22,3.64,3.64,0,0,0-1.24-2.36,6.72,6.72,0,0,0-1.82-1.3,5.89,5.89,0,0,0-2-.59l.55-1.9a7,7,0,0,1,2.52.81,10,10,0,0,1,2.35,1.76A5.75,5.75,0,0,1,452.27,708.83Zm-8.21,5a3.3,3.3,0,0,0,2.16-.19l1.26-1.26L445,709.84c-1.38-1.38-2.53-1.6-3.46-.68a1.8,1.8,0,0,0-.54,1.6,3.41,3.41,0,0,0,1.07,1.85A4.23,4.23,0,0,0,444.06,713.8Z" transform="translate(-19.23 -179.8)"/><path class="cls-9" d="M470.16,726.85a5.61,5.61,0,0,1-1.93,3.92l-5.18,5.17-1.63-1.63,5-5a4,4,0,0,0,1.37-2.57,3.11,3.11,0,0,0-1.06-2.38,3.64,3.64,0,0,0-2.74-1.2,4.44,4.44,0,0,0-3,1.49l-4.63,4.63-1.63-1.63,5-5a4,4,0,0,0,1.37-2.57,3.13,3.13,0,0,0-1.06-2.38,3.64,3.64,0,0,0-2.74-1.2,4.39,4.39,0,0,0-2.95,1.48l-4.63,4.64L448.12,721l9-9,1.57,1.57-1.35,1.34a4.54,4.54,0,0,1,2.36.22,6.19,6.19,0,0,1,2.18,1.46,5.6,5.6,0,0,1,1.44,2.29,4.23,4.23,0,0,1,0,2.49,4.86,4.86,0,0,1,2.63.2,6.51,6.51,0,0,1,2.49,1.6A5.2,5.2,0,0,1,470.16,726.85Z" transform="translate(-19.23 -179.8)"/><path class="cls-9" d="M479.6,642.55a9.34,9.34,0,0,1-3.08,5.67,10.44,10.44,0,0,1-4.09,2.68,6.91,6.91,0,0,1-4.09.16,8.38,8.38,0,0,1-3.67-2.23,10.41,10.41,0,0,1-1.45-1.8,6.25,6.25,0,0,1-.8-1.85l2-.67a5.86,5.86,0,0,0,1.73,2.85,5.24,5.24,0,0,0,4,1.74,6.74,6.74,0,0,0,4.38-2.29l.43-.42a4.48,4.48,0,0,1-2.57-.25,6.78,6.78,0,0,1-2.42-1.62,6.9,6.9,0,0,1-1.66-2.53,4.76,4.76,0,0,1-.17-2.71,4.87,4.87,0,0,1,1.37-2.41,5,5,0,0,1,2.52-1.42,5.24,5.24,0,0,1,2.82.19,6.76,6.76,0,0,1,2.6,1.67A6.45,6.45,0,0,1,479.6,642.55Zm-6.24,2a3.43,3.43,0,0,0,1.81.14,3,3,0,0,0,1.52-.82,2.89,2.89,0,0,0,.81-1.48,3.31,3.31,0,0,0-.13-1.8,5,5,0,0,0-1.22-1.85,4,4,0,0,0-2.52-1.26,3,3,0,0,0-2.41,1,3,3,0,0,0-.94,2.4,4.24,4.24,0,0,0,1.35,2.59A4.63,4.63,0,0,0,473.36,644.56Z" transform="translate(-19.23 -179.8)"/><path class="cls-9" d="M487.08,654.65a5,5,0,0,1-1.74,3.72l-5.43,5.43-1.54-1.54,1.19-1.19a3.63,3.63,0,0,1-2.12-.2,6.35,6.35,0,0,1-2.13-1.46,5.29,5.29,0,0,1-1.68-3.15,3.54,3.54,0,0,1,3.78-3.87,6,6,0,0,1,3.47,2l2.58,2.58.32-.33a2.91,2.91,0,0,0,1-2.22,3.59,3.59,0,0,0-1.24-2.36,6.94,6.94,0,0,0-1.82-1.3,5.6,5.6,0,0,0-2-.58l.54-1.9a7,7,0,0,1,2.52.8,10,10,0,0,1,2.35,1.76A5.75,5.75,0,0,1,487.08,654.65Zm-8.21,5a3.36,3.36,0,0,0,2.16-.2l1.26-1.25-2.51-2.51c-1.38-1.39-2.54-1.61-3.47-.68a1.78,1.78,0,0,0-.54,1.59,3.41,3.41,0,0,0,1.07,1.85A4.34,4.34,0,0,0,478.87,659.62Z" transform="translate(-19.23 -179.8)"/><path class="cls-9" d="M505,672.67a5.55,5.55,0,0,1-1.93,3.91l-5.17,5.18-1.63-1.63,5-5a4,4,0,0,0,1.36-2.57,3.12,3.12,0,0,0-1.06-2.39,3.65,3.65,0,0,0-2.74-1.19,4.34,4.34,0,0,0-2.94,1.48l-4.63,4.63-1.63-1.63,5-5a4,4,0,0,0,1.36-2.57,3.12,3.12,0,0,0-1.06-2.39,3.64,3.64,0,0,0-2.74-1.2,4.4,4.4,0,0,0-2.94,1.49l-4.64,4.63-1.63-1.63,9-9,1.56,1.56-1.34,1.34a4.41,4.41,0,0,1,2.35.23,6.16,6.16,0,0,1,2.18,1.45,5.66,5.66,0,0,1,1.44,2.29,4.18,4.18,0,0,1,0,2.5,4.8,4.8,0,0,1,2.64.19,6.43,6.43,0,0,1,2.48,1.61A5.14,5.14,0,0,1,505,672.67Z" transform="translate(-19.23 -179.8)"/><path class="cls-9" d="M510.22,683.39l4.57,4.56-1.41,1.41-4.57-4.57Z" transform="translate(-19.23 -179.8)"/><path class="cls-9" d="M531.33,691.46l-11.88,11.88-1.68-1.68,10.41-10.4-2.68-2.68L527,687.1Z" transform="translate(-19.23 -179.8)"/><path class="cls-9" d="M531.88,712.81l-1.48,1.48-8.54-8.54L523,704.6l9.5.17a8.24,8.24,0,0,0,2.66-.28,4.11,4.11,0,0,0,1.55-.94,2.5,2.5,0,0,0,.8-2.11,4.2,4.2,0,0,0-1.36-2.39,5.26,5.26,0,0,0-4.33-1.75l-.15-2.15a6.41,6.41,0,0,1,3.15.5,8.86,8.86,0,0,1,3,2,6.47,6.47,0,0,1,2.08,3.86,4.15,4.15,0,0,1-1.31,3.52,5.86,5.86,0,0,1-2.21,1.4,10.4,10.4,0,0,1-3.48.39l-7.13-.14Z" transform="translate(-19.23 -179.8)"/><path class="cls-9" d="M548.13,715a5.82,5.82,0,0,1,0,3.23,6.75,6.75,0,0,1-1.81,3,6.91,6.91,0,0,1-3,1.82,5.94,5.94,0,0,1-3.24,0,6.72,6.72,0,0,1-2.92-1.77,5.79,5.79,0,0,1-1.4-2.15,5.2,5.2,0,0,1-.28-2.45l-4.65,4.65-1.63-1.63,12.29-12.28,1.56,1.56-1.43,1.42a4.93,4.93,0,0,1,2.5.25,6.14,6.14,0,0,1,2.22,1.45A6.6,6.6,0,0,1,548.13,715Zm-7.7,5.85a4,4,0,0,0,2.2,0,4.73,4.73,0,0,0,2.06-1.26,4.67,4.67,0,0,0,1.25-2.05,3.92,3.92,0,0,0,0-2.2,4.44,4.44,0,0,0-1.16-1.94,4.21,4.21,0,0,0-1.94-1.14,4.08,4.08,0,0,0-2.19,0,4.65,4.65,0,0,0-2,1.24,4.91,4.91,0,0,0-1.26,2.05,4,4,0,0,0,0,2.21,4.31,4.31,0,0,0,1.15,1.94A4.22,4.22,0,0,0,540.43,720.87Z" transform="translate(-19.23 -179.8)"/><path class="cls-9" d="M566.13,733.83a5.54,5.54,0,0,1-1.92,3.91L559,742.92l-1.63-1.63,5-5a4,4,0,0,0,1.37-2.57,3.2,3.2,0,0,0-1.06-2.39,3.67,3.67,0,0,0-2.75-1.19,4.38,4.38,0,0,0-2.94,1.48l-4.63,4.64-1.63-1.63,5-5a4,4,0,0,0,1.36-2.57,3.12,3.12,0,0,0-1.06-2.39,3.65,3.65,0,0,0-2.74-1.19,4.34,4.34,0,0,0-2.94,1.48l-4.64,4.63L544.1,728l9-9,1.56,1.56-1.34,1.34a4.41,4.41,0,0,1,2.35.23,6.07,6.07,0,0,1,2.18,1.45,5.66,5.66,0,0,1,1.44,2.29,4.18,4.18,0,0,1,0,2.5,4.9,4.9,0,0,1,2.64.19,6.54,6.54,0,0,1,2.49,1.61A5.13,5.13,0,0,1,566.13,733.83Z" transform="translate(-19.23 -179.8)"/><path class="cls-9" d="M566.15,637.28l-11.88,11.88-1.68-1.68L563,637.07l-2.68-2.68,1.48-1.47Z" transform="translate(-19.23 -179.8)"/><path class="cls-9" d="M566.69,658.63l-1.48,1.47-8.53-8.53,1.15-1.16,9.5.17a8.24,8.24,0,0,0,2.66-.28,3.85,3.85,0,0,0,1.55-.94,2.45,2.45,0,0,0,.8-2.11,4.17,4.17,0,0,0-1.36-2.39,5.28,5.28,0,0,0-4.32-1.75L566.5,641a6.53,6.53,0,0,1,3.15.5,9.3,9.3,0,0,1,3,2,6.6,6.6,0,0,1,2.08,3.87,4.18,4.18,0,0,1-1.32,3.52,5.88,5.88,0,0,1-2.21,1.39,10.33,10.33,0,0,1-3.48.39l-7.12-.14Z" transform="translate(-19.23 -179.8)"/><path class="cls-9" d="M583,660.83a5.91,5.91,0,0,1,0,3.23,7.38,7.38,0,0,1-4.8,4.8,5.85,5.85,0,0,1-3.24,0,6.78,6.78,0,0,1-2.92-1.77,6,6,0,0,1-1.4-2.14,5.23,5.23,0,0,1-.28-2.45l-4.65,4.64L564,665.51l12.29-12.28,1.56,1.56-1.43,1.43a4.87,4.87,0,0,1,2.51.24,6.23,6.23,0,0,1,2.21,1.45A6.78,6.78,0,0,1,583,660.83Zm-7.71,5.86a4.05,4.05,0,0,0,2.21,0,4.67,4.67,0,0,0,2-1.25,4.79,4.79,0,0,0,1.26-2.06,4,4,0,0,0,0-2.19,4.51,4.51,0,0,0-3.09-3.08,4,4,0,0,0-2.2,0,5.15,5.15,0,0,0-3.31,3.29,4,4,0,0,0,0,2.21,4.16,4.16,0,0,0,1.14,1.94A4.38,4.38,0,0,0,575.24,666.69Z" transform="translate(-19.23 -179.8)"/><path class="cls-9" d="M601,679.64a5.61,5.61,0,0,1-1.93,3.92l-5.18,5.17-1.63-1.63,5-5a4,4,0,0,0,1.37-2.57,3.13,3.13,0,0,0-1.06-2.38,3.64,3.64,0,0,0-2.74-1.2,4.38,4.38,0,0,0-2.95,1.49l-4.63,4.63-1.63-1.63,5-5a4,4,0,0,0,1.37-2.57,3.17,3.17,0,0,0-1.06-2.39,3.66,3.66,0,0,0-2.74-1.19,4.39,4.39,0,0,0-3,1.48l-4.63,4.64-1.63-1.63,9-9,1.56,1.56-1.34,1.34a4.6,4.6,0,0,1,2.35.23,6.12,6.12,0,0,1,2.18,1.45,5.65,5.65,0,0,1,1.45,2.29,4.18,4.18,0,0,1,0,2.5,4.81,4.81,0,0,1,2.64.2,6.51,6.51,0,0,1,2.49,1.6A5.2,5.2,0,0,1,601,679.64Z" transform="translate(-19.23 -179.8)"/><path class="cls-9" d="M606.2,690.36l4.56,4.56-1.41,1.41-4.56-4.56Z" transform="translate(-19.23 -179.8)"/><path class="cls-9" d="M624.77,708a4.4,4.4,0,0,1-1.4,3.23A4.84,4.84,0,0,1,621,712.6a4.93,4.93,0,0,1-2.82-.21,7.92,7.92,0,0,1-3-2,11.22,11.22,0,0,1-2.06-2.82,7.41,7.41,0,0,1-.86-3l2.13-.56a6.27,6.27,0,0,0,.63,2.48,8.17,8.17,0,0,0,1.67,2.37,4.75,4.75,0,0,0,2.63,1.5,2.6,2.6,0,0,0,2.28-.8,2.57,2.57,0,0,0,.8-2.26,5.25,5.25,0,0,0-1.67-2.75l-.95-1,1.19-1.19,6.65-.68L622,696.05l1.48-1.48,7.84,7.84-1.15,1.15-7,.73A5.94,5.94,0,0,1,624.77,708Z" transform="translate(-19.23 -179.8)"/><path class="cls-9" d="M637.8,715.68a5.91,5.91,0,0,1,0,3.23,6.77,6.77,0,0,1-1.8,3,6.84,6.84,0,0,1-3,1.82,5.94,5.94,0,0,1-3.24,0,6.72,6.72,0,0,1-2.92-1.77,6,6,0,0,1-1.4-2.14,5.26,5.26,0,0,1-.28-2.46L620.52,722l-1.63-1.63,12.29-12.28,1.56,1.56-1.43,1.42a5,5,0,0,1,2.51.25,6.1,6.1,0,0,1,2.21,1.45A6.72,6.72,0,0,1,637.8,715.68Zm-7.71,5.85a4,4,0,0,0,2.21,0,4.73,4.73,0,0,0,2.05-1.25,4.88,4.88,0,0,0,1.26-2.06,4,4,0,0,0,0-2.2,4.56,4.56,0,0,0-3.09-3.08,4.11,4.11,0,0,0-2.2,0,4.64,4.64,0,0,0-2.05,1.25,4.82,4.82,0,0,0-1.26,2,4,4,0,0,0,0,2.21,4.54,4.54,0,0,0,3.1,3.09Z" transform="translate(-19.23 -179.8)"/><path class="cls-9" d="M655.79,734.49a5.54,5.54,0,0,1-1.92,3.91l-5.18,5.18L647.06,742l5-5a4,4,0,0,0,1.37-2.57,3.17,3.17,0,0,0-1.06-2.39,3.66,3.66,0,0,0-2.74-1.19,4.39,4.39,0,0,0-3,1.48L642,736.93l-1.63-1.63,5-5a4,4,0,0,0,1.36-2.57,3.12,3.12,0,0,0-1.06-2.39,3.65,3.65,0,0,0-2.74-1.19,4.34,4.34,0,0,0-2.94,1.48l-4.63,4.63-1.63-1.62,9-9,1.56,1.56L643,722.55a4.5,4.5,0,0,1,2.35.23,6.07,6.07,0,0,1,2.18,1.45,5.8,5.8,0,0,1,1.45,2.29,4.18,4.18,0,0,1,0,2.5,4.9,4.9,0,0,1,2.64.19,6.54,6.54,0,0,1,2.49,1.61A5.13,5.13,0,0,1,655.79,734.49Z" transform="translate(-19.23 -179.8)"/><path class="cls-9" d="M652.61,646.87a4.41,4.41,0,0,1-1.4,3.24,4.84,4.84,0,0,1-2.35,1.33,5,5,0,0,1-2.83-.21,8.1,8.1,0,0,1-2.95-2,11,11,0,0,1-2.06-2.82,7.41,7.41,0,0,1-.86-3l2.12-.56a6.47,6.47,0,0,0,.64,2.48,8.17,8.17,0,0,0,1.67,2.37,4.76,4.76,0,0,0,2.62,1.5,2.61,2.61,0,0,0,2.29-.8,2.54,2.54,0,0,0,.79-2.26,5.12,5.12,0,0,0-1.66-2.75l-1-.95,1.19-1.19,6.65-.68-5.72-5.72,1.48-1.47,7.84,7.84L658,642.4l-6.94.73A6.05,6.05,0,0,1,652.61,646.87Z" transform="translate(-19.23 -179.8)"/><path class="cls-9" d="M665.63,654.52a5.82,5.82,0,0,1,0,3.23,6.77,6.77,0,0,1-1.8,3,6.84,6.84,0,0,1-3,1.82,5.94,5.94,0,0,1-3.24,0,6.72,6.72,0,0,1-2.92-1.77,5.79,5.79,0,0,1-1.4-2.15,5.2,5.2,0,0,1-.28-2.45l-4.65,4.65-1.63-1.63L659,646.92l1.56,1.56-1.43,1.42a4.93,4.93,0,0,1,2.5.25,6.14,6.14,0,0,1,2.22,1.45A6.6,6.6,0,0,1,665.63,654.52Zm-7.7,5.85a4.05,4.05,0,0,0,2.21,0,5.18,5.18,0,0,0,3.31-3.31,4,4,0,0,0,0-2.2,4.44,4.44,0,0,0-1.16-1.94,4.29,4.29,0,0,0-1.94-1.14,4.08,4.08,0,0,0-2.19,0,4.64,4.64,0,0,0-2,1.25,4.82,4.82,0,0,0-1.26,2,4,4,0,0,0,0,2.21,4.31,4.31,0,0,0,1.15,1.94A4.22,4.22,0,0,0,657.93,660.37Z" transform="translate(-19.23 -179.8)"/><path class="cls-9" d="M683.63,673.33a5.54,5.54,0,0,1-1.92,3.91l-5.18,5.18-1.63-1.63,5-5a4,4,0,0,0,1.37-2.57,3.2,3.2,0,0,0-1.06-2.39,3.66,3.66,0,0,0-2.74-1.19,4.39,4.39,0,0,0-3,1.48l-4.63,4.64-1.63-1.63,5-5a4,4,0,0,0,1.36-2.57,3.12,3.12,0,0,0-1.06-2.39A3.65,3.65,0,0,0,670.8,663a4.34,4.34,0,0,0-2.94,1.48l-4.64,4.63-1.62-1.63,9-9,1.56,1.56-1.34,1.34a4.5,4.5,0,0,1,2.35.23,6.07,6.07,0,0,1,2.18,1.45,5.66,5.66,0,0,1,1.44,2.29,4.18,4.18,0,0,1,0,2.5,4.9,4.9,0,0,1,2.64.19,6.54,6.54,0,0,1,2.49,1.61A5.13,5.13,0,0,1,683.63,673.33Z" transform="translate(-19.23 -179.8)"/><path class="cls-9" d="M688.88,684.05l4.57,4.56L692,690l-4.56-4.56Z" transform="translate(-19.23 -179.8)"/><path class="cls-9" d="M708.43,700.77a4.83,4.83,0,0,1-1.18,5.14,5.07,5.07,0,0,1-2.52,1.41,5.18,5.18,0,0,1-2.83-.19,6.87,6.87,0,0,1-2.61-1.68,6.45,6.45,0,0,1-2.15-5.24,9.36,9.36,0,0,1,3.08-5.68,10.66,10.66,0,0,1,4.09-2.68,7,7,0,0,1,4.09-.15,8.26,8.26,0,0,1,3.67,2.22,10.47,10.47,0,0,1,1.45,1.81,6.2,6.2,0,0,1,.8,1.84l-2,.68a5.72,5.72,0,0,0-1.71-2.83,5.28,5.28,0,0,0-4-1.76,6.7,6.7,0,0,0-4.38,2.28,4.64,4.64,0,0,0-.41.44,4.53,4.53,0,0,1,2.56.24,7,7,0,0,1,2.41,1.61A6.93,6.93,0,0,1,708.43,700.77Zm-5.31,4.51a3,3,0,0,0,2.41-.95,2.93,2.93,0,0,0,.93-2.41,4.19,4.19,0,0,0-1.35-2.6,4.48,4.48,0,0,0-1.73-1.11,3.35,3.35,0,0,0-1.79-.14,3.08,3.08,0,0,0-2.34,2.3,3.31,3.31,0,0,0,.14,1.8,4.6,4.6,0,0,0,1.2,1.83A4,4,0,0,0,703.12,705.28Z" transform="translate(-19.23 -179.8)"/><path class="cls-9" d="M721.25,710.13a6,6,0,0,1,0,3.23,7.38,7.38,0,0,1-4.8,4.8,5.94,5.94,0,0,1-3.24,0,6.72,6.72,0,0,1-2.92-1.77,6,6,0,0,1-1.4-2.14,5.26,5.26,0,0,1-.28-2.46L704,716.44l-1.63-1.63,12.29-12.28,1.56,1.56-1.43,1.42a5,5,0,0,1,2.51.25,6.1,6.1,0,0,1,2.21,1.45A6.78,6.78,0,0,1,721.25,710.13ZM713.54,716a4.05,4.05,0,0,0,2.21,0,4.73,4.73,0,0,0,2-1.25,4.88,4.88,0,0,0,1.26-2.06,4,4,0,0,0,0-2.2,4.56,4.56,0,0,0-3.09-3.08,4.11,4.11,0,0,0-2.2,0,4.69,4.69,0,0,0-2,1.25,4.82,4.82,0,0,0-1.26,2,4,4,0,0,0,0,2.21,4.16,4.16,0,0,0,1.14,1.94A4.38,4.38,0,0,0,713.54,716Z" transform="translate(-19.23 -179.8)"/><path class="cls-9" d="M739.24,728.94a5.54,5.54,0,0,1-1.92,3.91L732.14,738l-1.63-1.63,5-5a4,4,0,0,0,1.37-2.57,3.13,3.13,0,0,0-1.06-2.38,3.64,3.64,0,0,0-2.74-1.2,4.36,4.36,0,0,0-3,1.49l-4.63,4.63-1.63-1.63,5-5a4,4,0,0,0,1.37-2.57,3.18,3.18,0,0,0-1.07-2.39,3.63,3.63,0,0,0-2.74-1.19,4.38,4.38,0,0,0-2.94,1.48l-4.63,4.64-1.63-1.63,9-9,1.56,1.56L726.42,717a4.5,4.5,0,0,1,2.35.23,6,6,0,0,1,2.18,1.45A5.87,5.87,0,0,1,732.4,721a4.18,4.18,0,0,1,0,2.5,4.81,4.81,0,0,1,2.64.2,6.51,6.51,0,0,1,2.49,1.6A5.13,5.13,0,0,1,739.24,728.94Z" transform="translate(-19.23 -179.8)"/><path class="cls-9" d="M742.58,645.92a4.83,4.83,0,0,1-1.18,5.14,5,5,0,0,1-2.52,1.41,5.18,5.18,0,0,1-2.83-.19,6.87,6.87,0,0,1-2.61-1.68,6.45,6.45,0,0,1-2.15-5.24,9.39,9.39,0,0,1,3.08-5.67,10.65,10.65,0,0,1,4.09-2.69,7,7,0,0,1,4.09-.15,8.24,8.24,0,0,1,3.67,2.23,10,10,0,0,1,1.45,1.8,6.31,6.31,0,0,1,.8,1.84l-2,.68a5.82,5.82,0,0,0-1.72-2.83,5.28,5.28,0,0,0-4-1.76,6.76,6.76,0,0,0-4.38,2.28c-.18.19-.32.33-.41.45a4.61,4.61,0,0,1,2.56.23,7.49,7.49,0,0,1,4.07,4.15Zm-5.31,4.51a3.23,3.23,0,0,0,3.35-3.36,4.25,4.25,0,0,0-1.36-2.6,4.53,4.53,0,0,0-1.72-1.11,3.39,3.39,0,0,0-1.8-.13,2.88,2.88,0,0,0-1.52.82,3,3,0,0,0-.82,1.47,3.41,3.41,0,0,0,.14,1.8,4.82,4.82,0,0,0,1.2,1.84A4,4,0,0,0,737.27,650.43Z" transform="translate(-19.23 -179.8)"/><path class="cls-9" d="M755.4,655.28a5.91,5.91,0,0,1,0,3.23,7.38,7.38,0,0,1-4.8,4.8,5.94,5.94,0,0,1-3.24,0,6.68,6.68,0,0,1-2.92-1.77,6,6,0,0,1-1.4-2.14,5.23,5.23,0,0,1-.28-2.45l-4.65,4.64L736.49,660l12.29-12.29,1.56,1.56-1.42,1.43a4.84,4.84,0,0,1,2.5.24,6.23,6.23,0,0,1,2.21,1.45A6.78,6.78,0,0,1,755.4,655.28Zm-7.71,5.86a4.05,4.05,0,0,0,2.21,0,4.67,4.67,0,0,0,2.05-1.25,4.73,4.73,0,0,0,1.26-2.06,4,4,0,0,0,0-2.19,4.29,4.29,0,0,0-1.16-2,4.24,4.24,0,0,0-1.93-1.13,4,4,0,0,0-2.2,0,5.15,5.15,0,0,0-3.31,3.29,4,4,0,0,0,0,2.21,4.24,4.24,0,0,0,1.14,1.94A4.38,4.38,0,0,0,747.69,661.14Z" transform="translate(-19.23 -179.8)"/><path class="cls-9" d="M773.4,674.09a5.61,5.61,0,0,1-1.93,3.92l-5.18,5.17-1.63-1.63,5-5A4,4,0,0,0,771,674a3.1,3.1,0,0,0-1.06-2.38,3.64,3.64,0,0,0-2.74-1.2,4.38,4.38,0,0,0-3,1.49l-4.63,4.63L758,674.9l5-5a4,4,0,0,0,1.37-2.57,3.13,3.13,0,0,0-1.06-2.38,3.64,3.64,0,0,0-2.74-1.2,4.39,4.39,0,0,0-3,1.48L753,669.88l-1.63-1.63,9-9,1.56,1.56-1.34,1.35a4.49,4.49,0,0,1,2.35.22,6.24,6.24,0,0,1,2.19,1.45,5.7,5.7,0,0,1,1.44,2.3,4.15,4.15,0,0,1,0,2.49,4.81,4.81,0,0,1,2.64.2,6.51,6.51,0,0,1,2.49,1.6A5.2,5.2,0,0,1,773.4,674.09Z" transform="translate(-19.23 -179.8)"/><path class="cls-9" d="M778.65,684.81l4.56,4.57-1.41,1.4-4.56-4.56Z" transform="translate(-19.23 -179.8)"/><path class="cls-9" d="M802.21,698.16a9.34,9.34,0,0,1-3.08,5.67,10.58,10.58,0,0,1-4.09,2.69,7,7,0,0,1-4.09.15,8.24,8.24,0,0,1-3.66-2.22,10.08,10.08,0,0,1-1.46-1.81,6.47,6.47,0,0,1-.8-1.84l2-.68a5.86,5.86,0,0,0,1.73,2.85,5.29,5.29,0,0,0,4,1.75,6.78,6.78,0,0,0,4.38-2.29l.42-.43a4.56,4.56,0,0,1-2.57-.24,7.15,7.15,0,0,1-2.42-1.62,6.85,6.85,0,0,1-1.65-2.54,4.67,4.67,0,0,1-.18-2.71,4.91,4.91,0,0,1,1.37-2.41,5,5,0,0,1,2.52-1.42,5.33,5.33,0,0,1,2.82.19,6.76,6.76,0,0,1,2.6,1.67A6.42,6.42,0,0,1,802.21,698.16Zm-6.24,2a3.44,3.44,0,0,0,1.81.14,3,3,0,0,0,1.52-.82,3,3,0,0,0,.82-1.48,3.42,3.42,0,0,0-.14-1.8,5,5,0,0,0-1.22-1.85,3.91,3.91,0,0,0-2.52-1.26,3,3,0,0,0-2.4,1,2.93,2.93,0,0,0-1,2.4,4.24,4.24,0,0,0,1.35,2.59A4.71,4.71,0,0,0,796,700.17Z" transform="translate(-19.23 -179.8)"/><path class="cls-9" d="M811,710.89a5.85,5.85,0,0,1,0,3.24,7.33,7.33,0,0,1-4.8,4.79,5.76,5.76,0,0,1-3.24,0,6.71,6.71,0,0,1-2.92-1.76,6,6,0,0,1-1.4-2.15,5.35,5.35,0,0,1-.28-2.45l-4.65,4.65-1.62-1.63,12.28-12.29,1.56,1.56-1.42,1.43a4.83,4.83,0,0,1,2.5.24,6.16,6.16,0,0,1,2.22,1.46A6.72,6.72,0,0,1,811,710.89Zm-7.7,5.86a4,4,0,0,0,2.2,0,5.14,5.14,0,0,0,3.31-3.3,4,4,0,0,0,0-2.2,4.4,4.4,0,0,0-1.17-2,4.24,4.24,0,0,0-1.93-1.13,4.11,4.11,0,0,0-2.2,0,5.2,5.2,0,0,0-3.31,3.3,3.92,3.92,0,0,0,0,2.2,4.33,4.33,0,0,0,1.14,1.94A4.27,4.27,0,0,0,803.31,716.75Z" transform="translate(-19.23 -179.8)"/><path class="cls-9" d="M829,729.71a5.61,5.61,0,0,1-1.93,3.91l-5.17,5.17-1.63-1.62,5-5a4,4,0,0,0,1.36-2.57,3.11,3.11,0,0,0-1.06-2.38,3.67,3.67,0,0,0-2.74-1.2,4.4,4.4,0,0,0-2.94,1.49l-4.64,4.63-1.63-1.63,5-5A4,4,0,0,0,820,723a3.1,3.1,0,0,0-1.06-2.38,3.64,3.64,0,0,0-2.74-1.2,4.38,4.38,0,0,0-2.95,1.49l-4.63,4.63L807,723.86l9-9,1.56,1.56-1.34,1.34a4.41,4.41,0,0,1,2.35.23,6.16,6.16,0,0,1,2.18,1.45,5.6,5.6,0,0,1,1.44,2.29,4.15,4.15,0,0,1,0,2.49,4.9,4.9,0,0,1,2.64.2,6.55,6.55,0,0,1,2.48,1.6A5.2,5.2,0,0,1,829,729.71Z" transform="translate(-19.23 -179.8)"/><path class="cls-9" d="M835.6,642.55a9.34,9.34,0,0,1-3.08,5.67,10.44,10.44,0,0,1-4.09,2.68,6.91,6.91,0,0,1-4.09.16,8.38,8.38,0,0,1-3.67-2.23,10.41,10.41,0,0,1-1.45-1.8,6.25,6.25,0,0,1-.8-1.85l2-.67a6,6,0,0,0,1.74,2.85,5.24,5.24,0,0,0,4,1.74,6.74,6.74,0,0,0,4.38-2.29l.43-.42a4.48,4.48,0,0,1-2.57-.25,6.78,6.78,0,0,1-2.42-1.62,6.9,6.9,0,0,1-1.66-2.53,4.85,4.85,0,0,1-.18-2.71,5,5,0,0,1,1.38-2.41,5,5,0,0,1,2.52-1.42,5.24,5.24,0,0,1,2.82.19,6.76,6.76,0,0,1,2.6,1.67A6.45,6.45,0,0,1,835.6,642.55Zm-6.24,2a3.43,3.43,0,0,0,1.81.14,3,3,0,0,0,1.52-.82,2.89,2.89,0,0,0,.81-1.48,3.31,3.31,0,0,0-.13-1.8,5,5,0,0,0-1.22-1.85,3.93,3.93,0,0,0-2.52-1.26,3,3,0,0,0-2.41,1,3,3,0,0,0-.94,2.4,4.19,4.19,0,0,0,1.35,2.59A4.63,4.63,0,0,0,829.36,644.56Z" transform="translate(-19.23 -179.8)"/><path class="cls-9" d="M843.08,654.65a5,5,0,0,1-1.74,3.72l-5.43,5.43-1.54-1.54,1.19-1.19a3.63,3.63,0,0,1-2.12-.2,6.35,6.35,0,0,1-2.13-1.46,5.29,5.29,0,0,1-1.68-3.15,3.31,3.31,0,0,1,1-2.83,3.35,3.35,0,0,1,2.78-1,6,6,0,0,1,3.47,2l2.58,2.58.32-.33a2.91,2.91,0,0,0,1-2.22,3.59,3.59,0,0,0-1.24-2.36,6.94,6.94,0,0,0-1.82-1.3,5.6,5.6,0,0,0-2-.58l.54-1.9a7,7,0,0,1,2.52.8,10,10,0,0,1,2.35,1.76A5.75,5.75,0,0,1,843.08,654.65Zm-8.21,5a3.36,3.36,0,0,0,2.16-.2l1.26-1.25-2.51-2.51c-1.38-1.39-2.54-1.61-3.47-.68a1.78,1.78,0,0,0-.54,1.59,3.41,3.41,0,0,0,1.07,1.85A4.34,4.34,0,0,0,834.87,659.62Z" transform="translate(-19.23 -179.8)"/><path class="cls-9" d="M861,672.67a5.55,5.55,0,0,1-1.93,3.91l-5.17,5.18-1.63-1.63,5-5a4,4,0,0,0,1.36-2.57,3.12,3.12,0,0,0-1.06-2.39,3.65,3.65,0,0,0-2.74-1.19,4.34,4.34,0,0,0-2.94,1.48l-4.64,4.63-1.62-1.63,5-5a4,4,0,0,0,1.36-2.57,3.12,3.12,0,0,0-1.06-2.39,3.64,3.64,0,0,0-2.74-1.2,4.4,4.4,0,0,0-2.94,1.49l-4.64,4.63-1.63-1.63,9-9,1.56,1.56-1.34,1.34a4.41,4.41,0,0,1,2.35.23,6.16,6.16,0,0,1,2.18,1.45,5.66,5.66,0,0,1,1.44,2.29,4.18,4.18,0,0,1,0,2.5,4.8,4.8,0,0,1,2.64.19,6.43,6.43,0,0,1,2.48,1.61A5.14,5.14,0,0,1,861,672.67Z" transform="translate(-19.23 -179.8)"/><path class="cls-9" d="M866.22,683.39l4.57,4.56-1.41,1.41-4.57-4.57Z" transform="translate(-19.23 -179.8)"/><path class="cls-9" d="M887.33,691.46l-11.88,11.88-1.68-1.68,10.41-10.4-2.68-2.68L883,687.1Z" transform="translate(-19.23 -179.8)"/><path class="cls-9" d="M887.88,712.81l-1.48,1.48-8.54-8.54L879,704.6l9.5.17a8.24,8.24,0,0,0,2.66-.28,4.11,4.11,0,0,0,1.55-.94,2.5,2.5,0,0,0,.8-2.11,4.2,4.2,0,0,0-1.36-2.39,5.26,5.26,0,0,0-4.33-1.75l-.15-2.15a6.41,6.41,0,0,1,3.15.5,8.86,8.86,0,0,1,3,2,6.47,6.47,0,0,1,2.08,3.86,4.15,4.15,0,0,1-1.31,3.52,5.86,5.86,0,0,1-2.21,1.4,10.4,10.4,0,0,1-3.48.39l-7.13-.14Z" transform="translate(-19.23 -179.8)"/><path class="cls-9" d="M902.82,714.38a5,5,0,0,1-1.74,3.73l-5.43,5.43L894.1,722l1.19-1.18a3.72,3.72,0,0,1-2.12-.21,6.27,6.27,0,0,1-2.12-1.46,5.28,5.28,0,0,1-1.69-3.15,3.3,3.3,0,0,1,1-2.82,3.37,3.37,0,0,1,2.77-1,6.12,6.12,0,0,1,3.48,2l2.58,2.58.32-.32a3,3,0,0,0,1-2.22,3.64,3.64,0,0,0-1.24-2.36,6.72,6.72,0,0,0-1.82-1.3,5.89,5.89,0,0,0-2-.59L896,708a7,7,0,0,1,2.53.81,10,10,0,0,1,2.35,1.76A5.75,5.75,0,0,1,902.82,714.38Zm-8.21,5a3.36,3.36,0,0,0,2.16-.19L898,717.9l-2.52-2.51c-1.38-1.38-2.53-1.6-3.46-.68a1.8,1.8,0,0,0-.54,1.6,3.35,3.35,0,0,0,1.07,1.85A4.23,4.23,0,0,0,894.61,719.35Z" transform="translate(-19.23 -179.8)"/><path class="cls-9" d="M920.71,732.4a5.61,5.61,0,0,1-1.93,3.92l-5.18,5.17L912,739.86l5-5a4,4,0,0,0,1.37-2.57,3.11,3.11,0,0,0-1.06-2.38,3.64,3.64,0,0,0-2.74-1.2,4.42,4.42,0,0,0-2.95,1.49L907,734.84l-1.63-1.63,5-5a4,4,0,0,0,1.37-2.57,3.13,3.13,0,0,0-1.06-2.38,3.64,3.64,0,0,0-2.74-1.2,4.41,4.41,0,0,0-3,1.48l-4.63,4.64-1.63-1.63,9-9,1.57,1.57-1.35,1.34a4.54,4.54,0,0,1,2.36.22,6.19,6.19,0,0,1,2.18,1.46,5.6,5.6,0,0,1,1.44,2.29,4.23,4.23,0,0,1,0,2.49,4.87,4.87,0,0,1,2.63.2,6.51,6.51,0,0,1,2.49,1.6A5.2,5.2,0,0,1,920.71,732.4Z" transform="translate(-19.23 -179.8)"/></svg>