<svg id="month" xmlns="http://www.w3.org/2000/svg" xmlns:xlink="http://www.w3.org/1999/xlink" viewBox="0 0 881.44 562.97"><defs><style>.cls-1{fill:url(#linear-gradient);}.cls-2{fill:url(#linear-gradient-2);}.cls-3{fill:url(#linear-gradient-3);}.cls-4{fill:url(#linear-gradient-4);}.cls-5{fill:url(#linear-gradient-5);}.cls-6{fill:url(#linear-gradient-6);}.cls-7{fill:url(#linear-gradient-7);}.cls-8{fill:url(#linear-gradient-8);}.cls-9{fill:#06040c;}.cls-10{fill:url(#linear-gradient-9);}.cls-11{fill:url(#linear-gradient-10);}.cls-12{fill:url(#linear-gradient-11);}</style><linearGradient id="linear-gradient" x1="-196" y1="606.37" x2="3118.05" y2="-2707.68" gradientUnits="userSpaceOnUse"><stop offset="0" stop-color="#624cc1"/><stop offset="1" stop-color="#00d1b2"/></linearGradient><linearGradient id="linear-gradient-2" x1="-270.41" y1="786.92" x2="2386.33" y2="-1869.82" xlink:href="#linear-gradient"/><linearGradient id="linear-gradient-3" x1="-525.79" y1="1340.3" x2="1481.47" y2="-666.96" xlink:href="#linear-gradient"/><linearGradient id="linear-gradient-4" x1="-1727.82" y1="2572.88" x2="1813.15" y2="-968.09" xlink:href="#linear-gradient"/><linearGradient id="linear-gradient-5" x1="-521.41" y1="1076.35" x2="2534.41" y2="-1979.47" xlink:href="#linear-gradient"/><linearGradient id="linear-gradient-6" x1="-1415.48" y1="2206.42" x2="1961.16" y2="-1170.22" xlink:href="#linear-gradient"/><linearGradient id="linear-gradient-7" x1="-1079.6" y1="1731.48" x2="2461.38" y2="-1809.49" xlink:href="#linear-gradient"/><linearGradient id="linear-gradient-8" x1="-646.61" y1="1274.99" x2="2260.53" y2="-1632.16" xlink:href="#linear-gradient"/><linearGradient id="linear-gradient-9" x1="-462.7" y1="1501.06" x2="1075.05" y2="-36.7" xlink:href="#linear-gradient"/><linearGradient id="linear-gradient-10" x1="-1437.23" y1="2468.22" x2="1219.51" y2="-188.52" xlink:href="#linear-gradient"/><linearGradient id="linear-gradient-11" x1="-1940.78" y1="3010.21" x2="1115.04" y2="-45.61" xlink:href="#linear-gradient"/></defs><title>month</title><rect class="cls-1" x="136.19" y="47.2" width="51.95" height="402" rx="25.97" ry="25.97"/><rect class="cls-2" x="200.33" y="131.2" width="51.95" height="318" rx="25.97" ry="25.97"/><rect class="cls-3" x="456.83" y="214.2" width="51.95" height="235" rx="25.97" ry="25.97"/><rect class="cls-4" x="585.38" y="18.2" width="51.95" height="431" rx="25.97" ry="25.97"/><rect class="cls-5" x="264.26" y="80.2" width="51.95" height="369" rx="25.97" ry="25.97"/><rect class="cls-6" x="520.76" y="39.2" width="51.95" height="410" rx="25.97" ry="25.97"/><rect class="cls-7" x="392.21" y="18.2" width="51.95" height="431" rx="25.97" ry="25.97"/><rect class="cls-8" x="328.2" y="99.2" width="51.95" height="350" rx="25.97" ry="25.97"/><path class="cls-9" d="M35.07,174.52v2.08H23V175l6.84-6.6a8.32,8.32,0,0,0,1.68-2.07,4,4,0,0,0,.43-1.77,2.45,2.45,0,0,0-.92-2.05,4.18,4.18,0,0,0-2.65-.73,5.29,5.29,0,0,0-4.3,1.82l-1.63-1.41A6.64,6.64,0,0,1,25,160.28a9.22,9.22,0,0,1,3.56-.67,6.49,6.49,0,0,1,4.2,1.26,4.16,4.16,0,0,1,1.56,3.42,5.87,5.87,0,0,1-.57,2.55,10.1,10.1,0,0,1-2.19,2.73l-5.13,5Z" transform="translate(-22.31 -158.8)"/><path class="cls-9" d="M40.29,175.78a6.82,6.82,0,0,1-2.43-3,12.36,12.36,0,0,1,0-9.21,6.82,6.82,0,0,1,2.43-3,6.32,6.32,0,0,1,3.54-1,6.24,6.24,0,0,1,3.52,1,6.91,6.91,0,0,1,2.44,3,12.49,12.49,0,0,1,0,9.21,6.91,6.91,0,0,1-2.44,3,6.24,6.24,0,0,1-3.52,1A6.32,6.32,0,0,1,40.29,175.78ZM47.06,173a10.13,10.13,0,0,0,0-9.6,4,4,0,0,0-6.48,0,10.13,10.13,0,0,0,0,9.6,4,4,0,0,0,6.48,0Z" transform="translate(-22.31 -158.8)"/><path class="cls-9" d="M59,170.68l-2.64,2.44v3.48H54V158.8h2.3v11.42l6.94-6.34H66l-5.35,5.26,5.88,7.46H63.73Z" transform="translate(-22.31 -158.8)"/><path class="cls-9" d="M92.65,159.8,87,176.6H84.51l-4.58-13.41L75.35,176.6H72.78l-5.62-16.8h2.47l4.54,13.66L78.9,159.8h2.21l4.63,13.73,4.63-13.73Z" transform="translate(-22.31 -158.8)"/><path class="cls-9" d="M106.25,165.17a5.52,5.52,0,0,1,1.42,4.11v7.32h-2.3v-7a3.94,3.94,0,0,0-.89-2.79,3.35,3.35,0,0,0-2.54-.93,4,4,0,0,0-3,1.09,4.26,4.26,0,0,0-1.08,3.13v6.55H95.6V158.8h2.31v6.88a4.72,4.72,0,0,1,1.88-1.41,6.42,6.42,0,0,1,2.6-.51A5.27,5.27,0,0,1,106.25,165.17Z" transform="translate(-22.31 -158.8)"/><path class="cls-9" d="M28.47,389.8v16.8H26.1V391.89H22.31V389.8Z" transform="translate(-22.31 -158.8)"/><path class="cls-9" d="M35.47,405.78a6.91,6.91,0,0,1-2.44-3,12.49,12.49,0,0,1,0-9.21,6.91,6.91,0,0,1,2.44-3,6.62,6.62,0,0,1,7.06,0,6.82,6.82,0,0,1,2.43,3,12.36,12.36,0,0,1,0,9.21,6.82,6.82,0,0,1-2.43,3,6.67,6.67,0,0,1-7.06,0ZM42.24,403a10.13,10.13,0,0,0,0-9.6,4,4,0,0,0-6.48,0,10.13,10.13,0,0,0,0,9.6,4,4,0,0,0,6.48,0Z" transform="translate(-22.31 -158.8)"/><path class="cls-9" d="M54.13,400.68l-2.64,2.44v3.48h-2.3V388.79h2.3v11.43l6.94-6.34h2.78l-5.35,5.26,5.88,7.46H58.91Z" transform="translate(-22.31 -158.8)"/><path class="cls-9" d="M87.83,389.8l-5.62,16.8H79.69l-4.58-13.41L70.52,406.6H68l-5.61-16.8h2.47l4.54,13.66,4.72-13.66h2.21l4.64,13.73,4.63-13.73Z" transform="translate(-22.31 -158.8)"/><path class="cls-9" d="M101.42,395.17a5.52,5.52,0,0,1,1.43,4.11v7.32h-2.3v-7.05a3.94,3.94,0,0,0-.89-2.79,3.35,3.35,0,0,0-2.55-.93,4,4,0,0,0-3,1.09,4.26,4.26,0,0,0-1.08,3.13v6.55h-2.3V388.79h2.3v6.89A4.75,4.75,0,0,1,95,394.27a6.38,6.38,0,0,1,2.6-.51A5.23,5.23,0,0,1,101.42,395.17Z" transform="translate(-22.31 -158.8)"/><path class="cls-9" d="M197.57,659.45l8.63-8.67-11.5,2.92-.78-.78,2.87-11.45-8.61,8.6-1.63-1.63,11.88-11.88,1.39,1.39-3.39,13.31,13.24-3.46,1.39,1.39-11.87,11.89Z" transform="translate(-22.31 -158.8)"/><path class="cls-9" d="M216.82,662.38a5,5,0,0,1-1.74,3.73l-5.43,5.43L208.1,670l1.19-1.18a3.73,3.73,0,0,1-2.12-.21,6.27,6.27,0,0,1-2.12-1.46,5.28,5.28,0,0,1-1.69-3.15,3.3,3.3,0,0,1,1-2.82,3.38,3.38,0,0,1,2.78-1,6.13,6.13,0,0,1,3.47,2l2.58,2.58.32-.32a3,3,0,0,0,1-2.22,3.68,3.68,0,0,0-1.24-2.36,6.72,6.72,0,0,0-1.82-1.3,5.89,5.89,0,0,0-2-.59L210,656a7,7,0,0,1,2.53.81,10,10,0,0,1,2.35,1.76A5.75,5.75,0,0,1,216.82,662.38Zm-8.22,5a3.39,3.39,0,0,0,2.17-.19L212,665.9l-2.51-2.51c-1.38-1.38-2.53-1.6-3.46-.68a1.8,1.8,0,0,0-.54,1.6,3.35,3.35,0,0,0,1.07,1.85A4.25,4.25,0,0,0,208.6,667.35Z" transform="translate(-22.31 -158.8)"/><path class="cls-9" d="M229.45,673.35l-14.25,5.54a6.35,6.35,0,0,1-3.29.58,4.3,4.3,0,0,1-2.41-1.3,5.37,5.37,0,0,1-1.07-1.49A3.72,3.72,0,0,1,208,675l1.92-.52a3.2,3.2,0,0,0,.95,2.27,2.18,2.18,0,0,0,1.3.68,3.67,3.67,0,0,0,1.8-.36l.92-.34,5-12.94,1.69,1.69-4.05,10.34,10.3-4.09Z" transform="translate(-22.31 -158.8)"/><path class="cls-9" d="M241.38,679.51,229.5,691.39l-1.68-1.68,10.41-10.4-2.68-2.68,1.47-1.48Z" transform="translate(-22.31 -158.8)"/><path class="cls-9" d="M233.48,695a6.57,6.57,0,0,1-.84-2.35l2-.61a6.92,6.92,0,0,0,.77,2.12,8.13,8.13,0,0,0,1.46,2c1.42,1.43,2.54,1.73,3.36.92a1.12,1.12,0,0,0,.35-.94,2.64,2.64,0,0,0-.37-1.07c-.22-.36-.54-.85-1-1.47a16.84,16.84,0,0,1-1.38-2.17,3.86,3.86,0,0,1-.43-1.92,2.93,2.93,0,0,1,1-2,3.25,3.25,0,0,1,3-.94,6.41,6.41,0,0,1,3.47,2,10.45,10.45,0,0,1,1.58,2,6.82,6.82,0,0,1,.88,2.07l-2,.6a6.54,6.54,0,0,0-1.89-3.31,4.23,4.23,0,0,0-1.91-1.24A1.46,1.46,0,0,0,240,689a1.25,1.25,0,0,0-.39,1,2.81,2.81,0,0,0,.38,1.13c.23.38.56.89,1,1.54a21.16,21.16,0,0,1,1.36,2.15,3.82,3.82,0,0,1,.42,1.87,2.82,2.82,0,0,1-.95,1.9,3.16,3.16,0,0,1-3,.9,7,7,0,0,1-3.56-2.12A10.36,10.36,0,0,1,233.48,695Z" transform="translate(-22.31 -158.8)"/><path class="cls-9" d="M246.92,707.75a3.38,3.38,0,0,1-1.35-.41,5.42,5.42,0,0,1-1.25-.93,4.09,4.09,0,0,1-1.38-2.83,4,4,0,0,1,1.35-2.84l4.93-4.93-1.52-1.53,1.34-1.34,1.52,1.52,2-2,1.63,1.63-2,2,2.58,2.58L253.43,700l-2.58-2.58L246,702.31a2.21,2.21,0,0,0-.75,1.48,1.91,1.91,0,0,0,.65,1.43,2.77,2.77,0,0,0,1.7.85Z" transform="translate(-22.31 -158.8)"/><path class="cls-9" d="M261,660.3l8.38-8.92L258,654.64l-.8-.76,2.53-11.54-8.35,8.86-1.67-1.59,11.53-12.22,1.43,1.35-3,13.4,13.13-3.84,1.43,1.35-11.5,12.23Z" transform="translate(-22.31 -158.8)"/><path class="cls-9" d="M280.36,662.67a5,5,0,0,1-1.63,3.77L273.46,672l-1.59-1.5,1.15-1.22a3.69,3.69,0,0,1-2.12-.14,6.36,6.36,0,0,1-2.17-1.4,5.34,5.34,0,0,1-1.78-3.1,3.3,3.3,0,0,1,.93-2.85,3.34,3.34,0,0,1,2.74-1.13,6.06,6.06,0,0,1,3.53,1.93l2.66,2.5.31-.33a2.92,2.92,0,0,0,.93-2.25,3.62,3.62,0,0,0-1.3-2.32,6.9,6.9,0,0,0-1.86-1.25,5.65,5.65,0,0,0-2-.52l.48-1.92a7.14,7.14,0,0,1,2.55.73,10.07,10.07,0,0,1,2.4,1.69A5.77,5.77,0,0,1,280.36,662.67Zm-8.07,5.21a3.44,3.44,0,0,0,2.16-.26l1.22-1.29-2.58-2.44q-2.13-2-3.48-.58a1.78,1.78,0,0,0-.5,1.61,3.39,3.39,0,0,0,1.12,1.82A4.38,4.38,0,0,0,272.29,667.88Z" transform="translate(-22.31 -158.8)"/><path class="cls-9" d="M293.31,673.26l-14.09,6a6.23,6.23,0,0,1-3.26.68,4.33,4.33,0,0,1-2.46-1.22,5.69,5.69,0,0,1-1.11-1.47,3.72,3.72,0,0,1-.46-1.63l1.9-.58a3.2,3.2,0,0,0,1,2.24,2.16,2.16,0,0,0,1.33.64,3.62,3.62,0,0,0,1.78-.41l.91-.36L283.5,664l1.74,1.65-3.75,10.45,10.18-4.39Z" transform="translate(-22.31 -158.8)"/><path class="cls-9" d="M300.12,694.3l-1.43,1.52-8.78-8.28,1.12-1.19,9.5-.1a8.37,8.37,0,0,0,2.65-.36,4,4,0,0,0,1.52-1,2.5,2.5,0,0,0,.74-2.13,4.24,4.24,0,0,0-1.43-2.35,5.29,5.29,0,0,0-4.38-1.62l-.21-2.15a6.63,6.63,0,0,1,3.16.41,9,9,0,0,1,3.05,2,6.46,6.46,0,0,1,2.19,3.79,4.15,4.15,0,0,1-1.21,3.56,5.79,5.79,0,0,1-2.16,1.46,10.2,10.2,0,0,1-3.47.49l-7.13.07Z" transform="translate(-22.31 -158.8)"/><path class="cls-9" d="M316.46,696.87a5.54,5.54,0,0,1-1.79,4l-5,5.33L308,704.58l4.84-5.13a3.93,3.93,0,0,0,1.26-2.63,3.32,3.32,0,0,0-1.21-2.43,3.93,3.93,0,0,0-2.89-1.23A4.24,4.24,0,0,0,307,694.7l-4.49,4.76-1.68-1.58,8.73-9.25,1.6,1.51-1.31,1.4a4.51,4.51,0,0,1,2.4.19,6.61,6.61,0,0,1,2.33,1.47A5.24,5.24,0,0,1,316.46,696.87Z" transform="translate(-22.31 -158.8)"/><path class="cls-9" d="M333.76,704.42l-12.22,13-1.61-1.52,1.39-1.46a5,5,0,0,1-2.52-.17,6.06,6.06,0,0,1-2.26-1.37,6.6,6.6,0,0,1-1.85-2.87,5.85,5.85,0,0,1-.1-3.24,6.9,6.9,0,0,1,1.73-3,6.75,6.75,0,0,1,2.92-1.89,6,6,0,0,1,3.24-.09,6.75,6.75,0,0,1,3,1.68,6,6,0,0,1,1.48,2.11,4.76,4.76,0,0,1,.35,2.42l4.81-5.1ZM320,712.61a4,4,0,0,0,2.21-.1,5.2,5.2,0,0,0,3.21-3.4,3.83,3.83,0,0,0,0-2.2,4.65,4.65,0,0,0-3.18-3,4.12,4.12,0,0,0-2.2.09,4.85,4.85,0,0,0-2,1.32,4.77,4.77,0,0,0-1.19,2.09,3.92,3.92,0,0,0,0,2.2,4.54,4.54,0,0,0,3.18,3Z" transform="translate(-22.31 -158.8)"/><path class="cls-9" d="M325.57,659.45l8.63-8.67-11.5,2.92-.78-.78,2.87-11.45-8.61,8.6-1.63-1.63,11.88-11.88,1.39,1.39-3.39,13.31,13.24-3.46,1.39,1.39-11.87,11.89Z" transform="translate(-22.31 -158.8)"/><path class="cls-9" d="M344.82,662.38a5,5,0,0,1-1.74,3.73l-5.43,5.43L336.1,670l1.19-1.18a3.73,3.73,0,0,1-2.12-.21,6.27,6.27,0,0,1-2.12-1.46,5.28,5.28,0,0,1-1.69-3.15,3.3,3.3,0,0,1,1-2.82,3.38,3.38,0,0,1,2.78-1,6.13,6.13,0,0,1,3.47,2l2.58,2.58.32-.32a3,3,0,0,0,1-2.22,3.68,3.68,0,0,0-1.24-2.36,6.72,6.72,0,0,0-1.82-1.3,5.89,5.89,0,0,0-2-.59L338,656a7,7,0,0,1,2.53.81,10,10,0,0,1,2.35,1.76A5.75,5.75,0,0,1,344.82,662.38Zm-8.22,5a3.39,3.39,0,0,0,2.17-.19L340,665.9l-2.51-2.51c-1.38-1.38-2.53-1.6-3.46-.68a1.8,1.8,0,0,0-.54,1.6,3.35,3.35,0,0,0,1.07,1.85A4.25,4.25,0,0,0,336.6,667.35Z" transform="translate(-22.31 -158.8)"/><path class="cls-9" d="M357.45,673.35l-14.25,5.54a6.35,6.35,0,0,1-3.29.58,4.3,4.3,0,0,1-2.41-1.3,5.37,5.37,0,0,1-1.07-1.49A3.72,3.72,0,0,1,336,675l1.92-.52a3.2,3.2,0,0,0,.95,2.27,2.18,2.18,0,0,0,1.3.68,3.67,3.67,0,0,0,1.8-.36l.92-.34,5-12.94,1.69,1.69-4.05,10.34,10.3-4.09Z" transform="translate(-22.31 -158.8)"/><path class="cls-9" d="M366.85,689.11a4.42,4.42,0,0,1-1.4,3.23,4.8,4.8,0,0,1-2.35,1.33,5,5,0,0,1-2.83-.21,8,8,0,0,1-2.95-2,10.86,10.86,0,0,1-2.06-2.83,7.21,7.21,0,0,1-.86-3l2.12-.56a6.17,6.17,0,0,0,.64,2.49,8.25,8.25,0,0,0,1.67,2.37,4.72,4.72,0,0,0,2.62,1.5,2.56,2.56,0,0,0,2.28-.81,2.53,2.53,0,0,0,.8-2.25,5.18,5.18,0,0,0-1.66-2.75l-.95-.95,1.18-1.19,6.66-.68L364,677.12l1.47-1.48,7.84,7.85-1.15,1.15-6.94.73A6,6,0,0,1,366.85,689.11Z" transform="translate(-22.31 -158.8)"/><path class="cls-9" d="M375.75,692.29a6.47,6.47,0,0,1,2.42,1.62l-1.57,1.57a5.09,5.09,0,0,0-.36-.39,3.9,3.9,0,0,0-2.87-1.29,4.42,4.42,0,0,0-3,1.5l-4.48,4.48-1.63-1.63,9-9,1.56,1.56-1.51,1.51A4,4,0,0,1,375.75,692.29Z" transform="translate(-22.31 -158.8)"/><path class="cls-9" d="M392.09,700.79l-12.59,12.6-1.56-1.56,1.42-1.43a4.88,4.88,0,0,1-2.51-.24,5.9,5.9,0,0,1-2.22-1.44,6.72,6.72,0,0,1-1.77-2.92,5.94,5.94,0,0,1,0-3.24,7.38,7.38,0,0,1,4.8-4.8,6,6,0,0,1,3.23,0,6.78,6.78,0,0,1,2.92,1.77,6.16,6.16,0,0,1,1.42,2.14,5,5,0,0,1,.28,2.44l4.95-5Zm-14,7.79a4.05,4.05,0,0,0,2.21,0,4.82,4.82,0,0,0,2-1.26,4.88,4.88,0,0,0,1.27-2,3.83,3.83,0,0,0,0-2.2,4.6,4.6,0,0,0-3.09-3.09,4,4,0,0,0-2.2,0,4.88,4.88,0,0,0-2.06,1.26,4.73,4.73,0,0,0-1.25,2,4.05,4.05,0,0,0,0,2.21,4.38,4.38,0,0,0,1.16,1.95A4.26,4.26,0,0,0,378.13,708.58Z" transform="translate(-22.31 -158.8)"/><path class="cls-9" d="M389.57,659.45l8.63-8.67-11.5,2.92-.78-.78,2.87-11.45-8.61,8.6-1.63-1.63,11.88-11.88,1.39,1.39-3.39,13.31,13.24-3.46,1.39,1.39-11.87,11.89Z" transform="translate(-22.31 -158.8)"/><path class="cls-9" d="M408.82,662.38a5,5,0,0,1-1.74,3.73l-5.43,5.43L400.1,670l1.19-1.18a3.73,3.73,0,0,1-2.12-.21,6.27,6.27,0,0,1-2.12-1.46,5.28,5.28,0,0,1-1.69-3.15,3.3,3.3,0,0,1,1-2.82,3.38,3.38,0,0,1,2.78-1,6.13,6.13,0,0,1,3.47,2l2.58,2.58.32-.32a3,3,0,0,0,1-2.22,3.68,3.68,0,0,0-1.24-2.36,6.72,6.72,0,0,0-1.82-1.3,5.89,5.89,0,0,0-2-.59L402,656a7,7,0,0,1,2.53.81,10,10,0,0,1,2.35,1.76A5.75,5.75,0,0,1,408.82,662.38Zm-8.22,5a3.39,3.39,0,0,0,2.17-.19L404,665.9l-2.51-2.51c-1.38-1.38-2.53-1.6-3.46-.68a1.8,1.8,0,0,0-.54,1.6,3.35,3.35,0,0,0,1.07,1.85A4.25,4.25,0,0,0,400.6,667.35Z" transform="translate(-22.31 -158.8)"/><path class="cls-9" d="M421.45,673.35l-14.25,5.54a6.35,6.35,0,0,1-3.29.58,4.3,4.3,0,0,1-2.41-1.3,5.37,5.37,0,0,1-1.07-1.49A3.72,3.72,0,0,1,400,675l1.92-.52a3.2,3.2,0,0,0,.95,2.27,2.18,2.18,0,0,0,1.3.68,3.67,3.67,0,0,0,1.8-.36l.92-.34,5-12.94,1.69,1.69-4.05,10.34,10.3-4.09Z" transform="translate(-22.31 -158.8)"/><path class="cls-9" d="M431.08,695.13l-2.26-2.26-2.92,2.92-1.65-1.65,2.92-2.92-6.6-6.6,1.19-1.19,13.85-1.69,1.83,1.83-13.32,1.68,4.56,4.56,2.58-2.57,1.6,1.59-2.58,2.58,2.26,2.26Z" transform="translate(-22.31 -158.8)"/><path class="cls-9" d="M435.52,704.36a3.45,3.45,0,0,1-1.35-.42,5.06,5.06,0,0,1-1.24-.92,4.07,4.07,0,0,1-1.38-2.84,4,4,0,0,1,1.34-2.83l4.94-4.94-1.53-1.53,1.34-1.34,1.53,1.53,2-2,1.63,1.63-2,2,2.58,2.58L442,696.62,439.46,694l-4.87,4.87a2.24,2.24,0,0,0-.76,1.49,1.92,1.92,0,0,0,.66,1.43,2.75,2.75,0,0,0,1.69.85Z" transform="translate(-22.31 -158.8)"/><path class="cls-9" d="M452.58,706.29a5.51,5.51,0,0,1-1.9,3.92l-5.18,5.18-1.63-1.63,5-5a3.9,3.9,0,0,0,1.34-2.6,3.35,3.35,0,0,0-1.14-2.46,3.94,3.94,0,0,0-2.86-1.31,4.24,4.24,0,0,0-3,1.45l-4.64,4.63L437,706.85l12.6-12.59,1.63,1.63-4.88,4.87a4.8,4.8,0,0,1,2.34.33,6.55,6.55,0,0,1,2.2,1.49A5.25,5.25,0,0,1,452.58,706.29Z" transform="translate(-22.31 -158.8)"/><path class="cls-9" d="M453.57,659.45l8.63-8.67-11.5,2.92-.78-.78,2.87-11.45-8.61,8.6-1.63-1.63,11.88-11.88,1.39,1.39-3.39,13.31,13.24-3.46,1.39,1.39-11.87,11.89Z" transform="translate(-22.31 -158.8)"/><path class="cls-9" d="M472.82,662.38a5,5,0,0,1-1.74,3.73l-5.43,5.43L464.1,670l1.19-1.18a3.73,3.73,0,0,1-2.12-.21,6.27,6.27,0,0,1-2.12-1.46,5.28,5.28,0,0,1-1.69-3.15,3.3,3.3,0,0,1,1-2.82,3.38,3.38,0,0,1,2.78-1,6.13,6.13,0,0,1,3.47,2l2.58,2.58.32-.32a3,3,0,0,0,1-2.22,3.68,3.68,0,0,0-1.24-2.36,6.72,6.72,0,0,0-1.82-1.3,5.89,5.89,0,0,0-2-.59L466,656a7,7,0,0,1,2.53.81,10,10,0,0,1,2.35,1.76A5.75,5.75,0,0,1,472.82,662.38Zm-8.22,5a3.39,3.39,0,0,0,2.17-.19L468,665.9l-2.51-2.51c-1.38-1.38-2.53-1.6-3.46-.68a1.8,1.8,0,0,0-.54,1.6,3.35,3.35,0,0,0,1.07,1.85A4.25,4.25,0,0,0,464.6,667.35Z" transform="translate(-22.31 -158.8)"/><path class="cls-9" d="M485.45,673.35l-14.25,5.54a6.35,6.35,0,0,1-3.29.58,4.3,4.3,0,0,1-2.41-1.3,5.37,5.37,0,0,1-1.07-1.49A3.72,3.72,0,0,1,464,675l1.92-.52a3.2,3.2,0,0,0,.95,2.27,2.18,2.18,0,0,0,1.3.68,3.67,3.67,0,0,0,1.8-.36l.92-.34,5-12.94,1.69,1.69-4.05,10.34,10.3-4.09Z" transform="translate(-22.31 -158.8)"/><path class="cls-9" d="M495.14,688.66a4.48,4.48,0,0,1-1.42,3.82,5.15,5.15,0,0,1-2.4,1.39,4.79,4.79,0,0,1-2.83-.19,8.11,8.11,0,0,1-3-2,10.75,10.75,0,0,1-2-2.81,7.57,7.57,0,0,1-.88-3l2.12-.56a6.47,6.47,0,0,0,.64,2.48,8.07,8.07,0,0,0,1.65,2.35,4.78,4.78,0,0,0,2.65,1.52,2.62,2.62,0,0,0,2.29-.82,2.58,2.58,0,0,0,.81-2.43,7.34,7.34,0,0,0-2.23-3.34l-2.7-2.7,6.84-5.58,6.7,6.7L499.9,685l-5.28-5.28L491,682.64l1.32,1.32C494.06,685.66,495,687.22,495.14,688.66Z" transform="translate(-22.31 -158.8)"/><path class="cls-9" d="M497.88,702.71a3.34,3.34,0,0,1-1.35-.41,5.15,5.15,0,0,1-1.25-.93,4.09,4.09,0,0,1-1.38-2.83,4,4,0,0,1,1.35-2.84l4.93-4.94-1.52-1.52L500,687.9l1.52,1.52,2-2,1.63,1.62-2,2,2.58,2.58L504.39,695l-2.58-2.58-4.87,4.87a2.25,2.25,0,0,0-.75,1.49,1.91,1.91,0,0,0,.65,1.43,2.77,2.77,0,0,0,1.7.85Z" transform="translate(-22.31 -158.8)"/><path class="cls-9" d="M514.93,704.65a5.53,5.53,0,0,1-1.9,3.92l-5.18,5.17-1.62-1.63,5-5a3.9,3.9,0,0,0,1.35-2.59,3.35,3.35,0,0,0-1.14-2.46,4,4,0,0,0-2.86-1.32,4.28,4.28,0,0,0-3,1.45L501,706.83l-1.63-1.62,12.59-12.6,1.63,1.63-4.87,4.87a4.75,4.75,0,0,1,2.33.33,6.6,6.6,0,0,1,2.2,1.49A5.25,5.25,0,0,1,514.93,704.65Z" transform="translate(-22.31 -158.8)"/><path class="cls-9" d="M517.57,659.45l8.63-8.67-11.5,2.92-.78-.78,2.87-11.45-8.61,8.6-1.63-1.63,11.88-11.88,1.39,1.39-3.39,13.31,13.24-3.46,1.39,1.39L519.2,661.08Z" transform="translate(-22.31 -158.8)"/><path class="cls-9" d="M536.82,662.38a5,5,0,0,1-1.74,3.73l-5.43,5.43L528.1,670l1.19-1.18a3.72,3.72,0,0,1-2.12-.21,6.27,6.27,0,0,1-2.12-1.46,5.28,5.28,0,0,1-1.69-3.15,3.3,3.3,0,0,1,1-2.82,3.37,3.37,0,0,1,2.77-1,6.12,6.12,0,0,1,3.48,2l2.58,2.58.32-.32a3,3,0,0,0,1-2.22,3.68,3.68,0,0,0-1.24-2.36,6.72,6.72,0,0,0-1.82-1.3,5.89,5.89,0,0,0-2-.59L530,656a7,7,0,0,1,2.53.81,10,10,0,0,1,2.35,1.76A5.75,5.75,0,0,1,536.82,662.38Zm-8.21,5a3.36,3.36,0,0,0,2.16-.19L532,665.9l-2.52-2.51c-1.38-1.38-2.53-1.6-3.46-.68a1.8,1.8,0,0,0-.54,1.6,3.35,3.35,0,0,0,1.07,1.85A4.23,4.23,0,0,0,528.61,667.35Z" transform="translate(-22.31 -158.8)"/><path class="cls-9" d="M549.45,673.35l-14.25,5.54a6.35,6.35,0,0,1-3.29.58,4.3,4.3,0,0,1-2.41-1.3,5.37,5.37,0,0,1-1.07-1.49A3.72,3.72,0,0,1,528,675l1.92-.52a3.2,3.2,0,0,0,.95,2.27,2.18,2.18,0,0,0,1.31.68,3.66,3.66,0,0,0,1.79-.36l.92-.34,5-12.94,1.69,1.69-4.05,10.34,10.3-4.09Z" transform="translate(-22.31 -158.8)"/><path class="cls-9" d="M559.81,688.16a4.75,4.75,0,0,1-1.18,5.13,5,5,0,0,1-2.51,1.42,5.27,5.27,0,0,1-2.83-.19,6.78,6.78,0,0,1-2.61-1.69,6.39,6.39,0,0,1-2.15-5.23,9.36,9.36,0,0,1,3.08-5.68,10.59,10.59,0,0,1,4.09-2.68,7,7,0,0,1,4.09-.15,8.32,8.32,0,0,1,3.67,2.22,10.47,10.47,0,0,1,1.45,1.81,6.77,6.77,0,0,1,.8,1.84l-2,.68a5.68,5.68,0,0,0-1.71-2.83,5.28,5.28,0,0,0-4-1.76,6.74,6.74,0,0,0-4.39,2.28,5.92,5.92,0,0,0-.4.44,4.53,4.53,0,0,1,2.56.24,7,7,0,0,1,2.41,1.61A6.78,6.78,0,0,1,559.81,688.16Zm-5.3,4.51a3,3,0,0,0,2.41-.95,2.94,2.94,0,0,0,.93-2.41,4.21,4.21,0,0,0-1.35-2.6,4.56,4.56,0,0,0-1.73-1.11,3.38,3.38,0,0,0-1.8-.14,2.93,2.93,0,0,0-1.51.82,3,3,0,0,0-.82,1.48,3.31,3.31,0,0,0,.14,1.8,4.75,4.75,0,0,0,1.2,1.83A4,4,0,0,0,554.51,692.67Z" transform="translate(-22.31 -158.8)"/><path class="cls-9" d="M562.61,703.44a3.34,3.34,0,0,1-1.35-.41,5.42,5.42,0,0,1-1.25-.93,4.05,4.05,0,0,1-1.38-2.83,4,4,0,0,1,1.34-2.84l4.94-4.93L563.39,690l1.34-1.34,1.52,1.52,2-2,1.63,1.62-2,2,2.58,2.58-1.34,1.34-2.58-2.58L561.67,698a2.25,2.25,0,0,0-.75,1.49,1.91,1.91,0,0,0,.65,1.43,2.77,2.77,0,0,0,1.7.85Z" transform="translate(-22.31 -158.8)"/><path class="cls-9" d="M579.66,705.38a5.53,5.53,0,0,1-1.9,3.92l-5.18,5.17L571,712.84l5-5a3.93,3.93,0,0,0,1.34-2.59,3.35,3.35,0,0,0-1.14-2.46,4,4,0,0,0-2.86-1.32,4.28,4.28,0,0,0-3,1.45l-4.63,4.64-1.63-1.63,12.59-12.6,1.63,1.63-4.87,4.87a4.75,4.75,0,0,1,2.33.33,6.6,6.6,0,0,1,2.2,1.49A5.25,5.25,0,0,1,579.66,705.38Z" transform="translate(-22.31 -158.8)"/><path class="cls-9" d="M581.57,659.45l8.63-8.67-11.5,2.92-.78-.78,2.87-11.45-8.61,8.6-1.63-1.63,11.88-11.88,1.39,1.39-3.39,13.31,13.24-3.46,1.39,1.39L583.2,661.08Z" transform="translate(-22.31 -158.8)"/><path class="cls-9" d="M600.82,662.38a5,5,0,0,1-1.74,3.73l-5.43,5.43L592.1,670l1.19-1.18a3.72,3.72,0,0,1-2.12-.21,6.27,6.27,0,0,1-2.12-1.46,5.28,5.28,0,0,1-1.69-3.15,3.3,3.3,0,0,1,1-2.82,3.37,3.37,0,0,1,2.77-1,6.12,6.12,0,0,1,3.48,2l2.58,2.58.32-.32a3,3,0,0,0,1-2.22,3.68,3.68,0,0,0-1.24-2.36,6.72,6.72,0,0,0-1.82-1.3,5.89,5.89,0,0,0-2-.59L594,656a7,7,0,0,1,2.53.81,10,10,0,0,1,2.35,1.76A5.75,5.75,0,0,1,600.82,662.38Zm-8.21,5a3.36,3.36,0,0,0,2.16-.19L596,665.9l-2.52-2.51c-1.38-1.38-2.53-1.6-3.46-.68a1.8,1.8,0,0,0-.54,1.6,3.35,3.35,0,0,0,1.07,1.85A4.23,4.23,0,0,0,592.61,667.35Z" transform="translate(-22.31 -158.8)"/><path class="cls-9" d="M613.45,673.35l-14.25,5.54a6.35,6.35,0,0,1-3.29.58,4.3,4.3,0,0,1-2.41-1.3,5.37,5.37,0,0,1-1.07-1.49A3.72,3.72,0,0,1,592,675l1.92-.52a3.2,3.2,0,0,0,.95,2.27,2.18,2.18,0,0,0,1.31.68,3.66,3.66,0,0,0,1.79-.36l.92-.34,5-12.94,1.69,1.69-4.05,10.34,10.3-4.09Z" transform="translate(-22.31 -158.8)"/><path class="cls-9" d="M630.36,684.49l-1.16,1.15-15.53,5.92-1.79-1.8,15.1-5.7-5.43-5.43-2.12,2.12-1.63-1.63,3.6-3.59Z" transform="translate(-22.31 -158.8)"/><path class="cls-9" d="M626.08,702.92a3.63,3.63,0,0,1-1.35-.42,5.31,5.31,0,0,1-1.25-.92,4.1,4.1,0,0,1-1.37-2.84,3.92,3.92,0,0,1,1.34-2.83l4.94-4.94-1.53-1.53,1.34-1.34,1.53,1.53,2-2,1.63,1.63-2,2,2.58,2.58-1.34,1.34L630,692.6l-4.87,4.87a2.22,2.22,0,0,0-.76,1.48,1.93,1.93,0,0,0,.65,1.44,2.86,2.86,0,0,0,1.7.85Z" transform="translate(-22.31 -158.8)"/><path class="cls-9" d="M643.13,704.85a5.49,5.49,0,0,1-1.9,3.92L636.06,714l-1.63-1.63,5-5a3.9,3.9,0,0,0,1.34-2.6,3.35,3.35,0,0,0-1.14-2.46,3.94,3.94,0,0,0-2.86-1.31,4.27,4.27,0,0,0-3,1.45L629.15,707l-1.63-1.63,12.59-12.59,1.63,1.63-4.87,4.87a4.8,4.8,0,0,1,2.34.33,6.63,6.63,0,0,1,2.19,1.48A5.23,5.23,0,0,1,643.13,704.85Z" transform="translate(-22.31 -158.8)"/><path class="cls-9" d="M646.57,659.45l8.63-8.67-11.5,2.92-.78-.78,2.87-11.45-8.61,8.6-1.63-1.63,11.88-11.88,1.39,1.39-3.39,13.31,13.24-3.46,1.39,1.39L648.2,661.08Z" transform="translate(-22.31 -158.8)"/><path class="cls-9" d="M665.82,662.38a5,5,0,0,1-1.74,3.73l-5.43,5.43L657.1,670l1.19-1.18a3.72,3.72,0,0,1-2.12-.21,6.27,6.27,0,0,1-2.12-1.46,5.28,5.28,0,0,1-1.69-3.15,3.3,3.3,0,0,1,1-2.82,3.37,3.37,0,0,1,2.77-1,6.12,6.12,0,0,1,3.48,2l2.58,2.58.32-.32a3,3,0,0,0,1-2.22,3.68,3.68,0,0,0-1.24-2.36,6.72,6.72,0,0,0-1.82-1.3,5.89,5.89,0,0,0-2-.59L659,656a7,7,0,0,1,2.53.81,10,10,0,0,1,2.35,1.76A5.75,5.75,0,0,1,665.82,662.38Zm-8.21,5a3.36,3.36,0,0,0,2.16-.19L661,665.9l-2.52-2.51c-1.38-1.38-2.53-1.6-3.46-.68a1.8,1.8,0,0,0-.54,1.6,3.35,3.35,0,0,0,1.07,1.85A4.23,4.23,0,0,0,657.61,667.35Z" transform="translate(-22.31 -158.8)"/><path class="cls-9" d="M678.45,673.35l-14.25,5.54a6.35,6.35,0,0,1-3.29.58,4.3,4.3,0,0,1-2.41-1.3,5.37,5.37,0,0,1-1.07-1.49A3.72,3.72,0,0,1,657,675l1.92-.52a3.2,3.2,0,0,0,.95,2.27,2.18,2.18,0,0,0,1.31.68,3.66,3.66,0,0,0,1.79-.36l.92-.34,5-12.94,1.69,1.69-4.05,10.34,10.3-4.09Z" transform="translate(-22.31 -158.8)"/><path class="cls-9" d="M688.75,691.43a4,4,0,0,1-1.2,2.29,4.31,4.31,0,0,1-2.44,1.28,5.16,5.16,0,0,1-2.86-.43,9.67,9.67,0,0,1-2.93-2.09,9.35,9.35,0,0,1-2.06-2.91,5.11,5.11,0,0,1-.43-2.85,4.38,4.38,0,0,1,1.28-2.44,4.06,4.06,0,0,1,2.29-1.21,4.71,4.71,0,0,1,2.67.43,4.19,4.19,0,0,1-.2-2.27,3.71,3.71,0,0,1,1.1-2,4,4,0,0,1,2.25-1.18,4.72,4.72,0,0,1,2.62.38,8.4,8.4,0,0,1,2.63,1.85,8.59,8.59,0,0,1,1.88,2.65,4.76,4.76,0,0,1,.39,2.63,4,4,0,0,1-1.18,2.25,3.82,3.82,0,0,1-2,1.09,4.26,4.26,0,0,1-2.29-.2A4.73,4.73,0,0,1,688.75,691.43Zm-5.25,1.31a2.61,2.61,0,0,0,2.4-.77,2.53,2.53,0,0,0,.74-2.37,6.49,6.49,0,0,0-4.43-4.43,2.56,2.56,0,0,0-2.35.76,2.63,2.63,0,0,0-.79,2.38,5.1,5.1,0,0,0,1.62,2.79A5.29,5.29,0,0,0,683.5,692.74Zm4.18-12.42a2.36,2.36,0,0,0-2.1.7,2.31,2.31,0,0,0-.7,2.08,4.41,4.41,0,0,0,1.4,2.42,4.57,4.57,0,0,0,2.45,1.44,2.43,2.43,0,0,0,2.77-2.81,4.57,4.57,0,0,0-1.4-2.45A4.46,4.46,0,0,0,687.68,680.32Z" transform="translate(-22.31 -158.8)"/><path class="cls-9" d="M692.06,703.9a3.3,3.3,0,0,1-1.35-.42,5.25,5.25,0,0,1-1.24-.92,4.07,4.07,0,0,1-1.38-2.83,4,4,0,0,1,1.34-2.84l4.94-4.94-1.53-1.53,1.35-1.34,1.52,1.53,2-2,1.63,1.63-2,2,2.58,2.58-1.34,1.34L696,693.58l-4.87,4.87a2.19,2.19,0,0,0-.75,1.49,1.91,1.91,0,0,0,.65,1.43,2.77,2.77,0,0,0,1.7.85Z" transform="translate(-22.31 -158.8)"/><path class="cls-9" d="M709.12,705.83a5.5,5.5,0,0,1-1.9,3.92L702,714.93l-1.63-1.63,5-5a3.88,3.88,0,0,0,1.34-2.59,3.34,3.34,0,0,0-1.13-2.47,4,4,0,0,0-2.86-1.31,4.28,4.28,0,0,0-3,1.45L695.13,708l-1.62-1.63L706.1,693.8l1.63,1.63-4.87,4.87a4.77,4.77,0,0,1,2.33.33,6.46,6.46,0,0,1,2.2,1.49A5.25,5.25,0,0,1,709.12,705.83Z" transform="translate(-22.31 -158.8)"/><path class="cls-9" d="M711.57,659.45l8.63-8.67-11.5,2.92-.78-.78,2.87-11.45-8.61,8.6-1.63-1.63,11.88-11.88,1.39,1.39-3.39,13.31,13.24-3.46,1.39,1.39L713.2,661.08Z" transform="translate(-22.31 -158.8)"/><path class="cls-9" d="M730.82,662.38a5,5,0,0,1-1.74,3.73l-5.43,5.43L722.1,670l1.19-1.18a3.72,3.72,0,0,1-2.12-.21,6.27,6.27,0,0,1-2.12-1.46,5.28,5.28,0,0,1-1.69-3.15,3.3,3.3,0,0,1,1-2.82,3.37,3.37,0,0,1,2.77-1,6.12,6.12,0,0,1,3.48,2l2.58,2.58.32-.32a3,3,0,0,0,1-2.22,3.68,3.68,0,0,0-1.24-2.36,6.72,6.72,0,0,0-1.82-1.3,5.89,5.89,0,0,0-2-.59L724,656a7,7,0,0,1,2.53.81,10,10,0,0,1,2.35,1.76A5.75,5.75,0,0,1,730.82,662.38Zm-8.21,5a3.36,3.36,0,0,0,2.16-.19L726,665.9l-2.52-2.51c-1.38-1.38-2.53-1.6-3.46-.68a1.8,1.8,0,0,0-.54,1.6,3.35,3.35,0,0,0,1.07,1.85A4.23,4.23,0,0,0,722.61,667.35Z" transform="translate(-22.31 -158.8)"/><path class="cls-9" d="M743.45,673.35l-14.25,5.54a6.35,6.35,0,0,1-3.29.58,4.3,4.3,0,0,1-2.41-1.3,5.37,5.37,0,0,1-1.07-1.49A3.72,3.72,0,0,1,722,675l1.92-.52a3.2,3.2,0,0,0,.95,2.27,2.18,2.18,0,0,0,1.31.68,3.66,3.66,0,0,0,1.79-.36l.92-.34,5-12.94,1.69,1.69-4.05,10.34,10.3-4.09Z" transform="translate(-22.31 -158.8)"/><path class="cls-9" d="M757.84,684.78a9.44,9.44,0,0,1-3.08,5.68,10.62,10.62,0,0,1-4.09,2.68,6.91,6.91,0,0,1-4.09.15,8.21,8.21,0,0,1-3.67-2.22,10,10,0,0,1-1.45-1.81,6.39,6.39,0,0,1-.81-1.84l2-.68a5.93,5.93,0,0,0,1.73,2.85,5.24,5.24,0,0,0,4,1.75,6.78,6.78,0,0,0,4.38-2.29l.43-.42a4.61,4.61,0,0,1-2.58-.25,6.83,6.83,0,0,1-2.41-1.62,6.68,6.68,0,0,1-1.66-2.54,4.81,4.81,0,0,1-.18-2.7,4.89,4.89,0,0,1,1.38-2.41,4.94,4.94,0,0,1,2.52-1.42,5.1,5.1,0,0,1,2.81.19,6.61,6.61,0,0,1,2.61,1.67A6.43,6.43,0,0,1,757.84,684.78Zm-6.24,2a3.33,3.33,0,0,0,1.81.15,3,3,0,0,0,1.52-.82,3,3,0,0,0,.81-1.48,3.22,3.22,0,0,0-.14-1.8,4.83,4.83,0,0,0-1.22-1.85,3.91,3.91,0,0,0-2.52-1.26,3.23,3.23,0,0,0-3.34,3.36,4.09,4.09,0,0,0,1.35,2.58A4.4,4.4,0,0,0,751.6,686.79Z" transform="translate(-22.31 -158.8)"/><path class="cls-9" d="M756.78,703.61a3.34,3.34,0,0,1-1.35-.41,5.42,5.42,0,0,1-1.25-.93,4.05,4.05,0,0,1-1.38-2.83,4,4,0,0,1,1.34-2.84l4.94-4.94-1.53-1.52,1.35-1.34,1.52,1.52,2-2L764,690l-2,2,2.58,2.58-1.34,1.34-2.58-2.58-4.87,4.87a2.25,2.25,0,0,0-.75,1.49,1.91,1.91,0,0,0,.65,1.43,2.77,2.77,0,0,0,1.7.85Z" transform="translate(-22.31 -158.8)"/><path class="cls-9" d="M773.83,705.55a5.53,5.53,0,0,1-1.9,3.92l-5.18,5.17L765.13,713l5-5a3.9,3.9,0,0,0,1.35-2.59,3.35,3.35,0,0,0-1.14-2.46,4,4,0,0,0-2.86-1.32,4.28,4.28,0,0,0-3,1.45l-4.63,4.64-1.63-1.63,12.59-12.6,1.63,1.63L767.57,700a4.75,4.75,0,0,1,2.33.33,6.6,6.6,0,0,1,2.2,1.49A5.25,5.25,0,0,1,773.83,705.55Z" transform="translate(-22.31 -158.8)"/><path class="cls-9" d="M775.57,659.45l8.63-8.67-11.5,2.92-.78-.78,2.87-11.45-8.61,8.6-1.63-1.63,11.88-11.88,1.39,1.39-3.39,13.31,13.24-3.46,1.39,1.39L777.2,661.08Z" transform="translate(-22.31 -158.8)"/><path class="cls-9" d="M794.82,662.38a5,5,0,0,1-1.74,3.73l-5.43,5.43L786.1,670l1.19-1.18a3.72,3.72,0,0,1-2.12-.21,6.27,6.27,0,0,1-2.12-1.46,5.28,5.28,0,0,1-1.69-3.15,3.3,3.3,0,0,1,1-2.82,3.37,3.37,0,0,1,2.77-1,6.12,6.12,0,0,1,3.48,2l2.58,2.58.32-.32a3,3,0,0,0,1-2.22,3.68,3.68,0,0,0-1.24-2.36,6.72,6.72,0,0,0-1.82-1.3,5.89,5.89,0,0,0-2-.59L788,656a7,7,0,0,1,2.53.81,10,10,0,0,1,2.35,1.76A5.75,5.75,0,0,1,794.82,662.38Zm-8.21,5a3.36,3.36,0,0,0,2.16-.19L790,665.9l-2.52-2.51c-1.38-1.38-2.53-1.6-3.46-.68a1.8,1.8,0,0,0-.54,1.6,3.35,3.35,0,0,0,1.07,1.85A4.23,4.23,0,0,0,786.61,667.35Z" transform="translate(-22.31 -158.8)"/><path class="cls-9" d="M807.45,673.35l-14.25,5.54a6.35,6.35,0,0,1-3.29.58,4.3,4.3,0,0,1-2.41-1.3,5.37,5.37,0,0,1-1.07-1.49A3.72,3.72,0,0,1,786,675l1.92-.52a3.2,3.2,0,0,0,.95,2.27,2.18,2.18,0,0,0,1.31.68,3.66,3.66,0,0,0,1.79-.36l.92-.34,5-12.94,1.69,1.69-4.05,10.34,10.3-4.09Z" transform="translate(-22.31 -158.8)"/><path class="cls-9" d="M819.38,679.51,807.5,691.39l-1.68-1.68,10.41-10.4-2.69-2.68,1.48-1.48Z" transform="translate(-22.31 -158.8)"/><path class="cls-9" d="M813,695.75a6.78,6.78,0,0,1,.37-3.81,11.12,11.12,0,0,1,2.63-3.89,11,11,0,0,1,3.89-2.63,6.8,6.8,0,0,1,3.82-.37,6.21,6.21,0,0,1,3.22,1.78,6.1,6.1,0,0,1,1.76,3.21,6.78,6.78,0,0,1-.37,3.81,12.37,12.37,0,0,1-6.52,6.52,6.78,6.78,0,0,1-3.81.37,6.14,6.14,0,0,1-3.21-1.76A6.31,6.31,0,0,1,813,695.75Zm6.74,2.83a10.14,10.14,0,0,0,6.79-6.79,4,4,0,0,0-4.58-4.58A10.14,10.14,0,0,0,815.2,694a4,4,0,0,0,4.58,4.58Z" transform="translate(-22.31 -158.8)"/><path class="cls-9" d="M827.9,710.74a3.45,3.45,0,0,1-1.35-.42,5.25,5.25,0,0,1-1.24-.92,4.07,4.07,0,0,1-1.38-2.84,4,4,0,0,1,1.34-2.83l4.94-4.94-1.53-1.53,1.34-1.34,1.53,1.53,2-2,1.63,1.63-2,2,2.58,2.58L834.42,703l-2.58-2.58L827,705.29a2.24,2.24,0,0,0-.76,1.49,1.92,1.92,0,0,0,.66,1.43,2.78,2.78,0,0,0,1.69.85Z" transform="translate(-22.31 -158.8)"/><path class="cls-9" d="M845,712.67a5.5,5.5,0,0,1-1.9,3.92l-5.18,5.18-1.63-1.63,5-5a3.88,3.88,0,0,0,1.34-2.6,3.38,3.38,0,0,0-1.13-2.46,4,4,0,0,0-2.87-1.31,4.24,4.24,0,0,0-3,1.45L831,714.86l-1.63-1.63,12.6-12.59,1.63,1.63-4.87,4.87a4.78,4.78,0,0,1,2.33.33,6.46,6.46,0,0,1,2.2,1.49A5.25,5.25,0,0,1,845,712.67Z" transform="translate(-22.31 -158.8)"/><path class="cls-9" d="M839.57,659.45l8.63-8.67-11.5,2.92-.78-.78,2.87-11.45-8.61,8.6-1.63-1.63,11.88-11.88,1.39,1.39-3.39,13.31,13.24-3.46,1.39,1.39L841.2,661.08Z" transform="translate(-22.31 -158.8)"/><path class="cls-9" d="M858.82,662.38a5,5,0,0,1-1.74,3.73l-5.43,5.43L850.1,670l1.19-1.18a3.72,3.72,0,0,1-2.12-.21,6.27,6.27,0,0,1-2.12-1.46,5.28,5.28,0,0,1-1.69-3.15,3.3,3.3,0,0,1,1-2.82,3.37,3.37,0,0,1,2.77-1,6.12,6.12,0,0,1,3.48,2l2.58,2.58.32-.32a3,3,0,0,0,1-2.22,3.68,3.68,0,0,0-1.24-2.36,6.72,6.72,0,0,0-1.82-1.3,5.89,5.89,0,0,0-2-.59L852,656a7,7,0,0,1,2.53.81,10,10,0,0,1,2.35,1.76A5.75,5.75,0,0,1,858.82,662.38Zm-8.21,5a3.36,3.36,0,0,0,2.16-.19L854,665.9l-2.52-2.51c-1.38-1.38-2.53-1.6-3.46-.68a1.8,1.8,0,0,0-.54,1.6,3.35,3.35,0,0,0,1.07,1.85A4.23,4.23,0,0,0,850.61,667.35Z" transform="translate(-22.31 -158.8)"/><path class="cls-9" d="M871.45,673.35l-14.25,5.54a6.35,6.35,0,0,1-3.29.58,4.3,4.3,0,0,1-2.41-1.3,5.37,5.37,0,0,1-1.07-1.49A3.72,3.72,0,0,1,850,675l1.92-.52a3.2,3.2,0,0,0,.95,2.27,2.18,2.18,0,0,0,1.31.68,3.66,3.66,0,0,0,1.79-.36l.92-.34,5-12.94,1.69,1.69-4.05,10.34,10.3-4.09Z" transform="translate(-22.31 -158.8)"/><path class="cls-9" d="M883.38,679.51,871.5,691.39l-1.68-1.68,10.41-10.4-2.69-2.68,1.48-1.48Z" transform="translate(-22.31 -158.8)"/><path class="cls-9" d="M889.66,685.79l-11.88,11.88L876.1,696l10.41-10.4-2.69-2.68,1.48-1.48Z" transform="translate(-22.31 -158.8)"/><path class="cls-9" d="M886.69,705.53a3.3,3.3,0,0,1-1.35-.42,5.06,5.06,0,0,1-1.24-.92,4.07,4.07,0,0,1-1.38-2.84,4,4,0,0,1,1.34-2.83l4.94-4.94-1.53-1.53,1.34-1.34,1.53,1.53,2-2,1.63,1.63-2,2,2.58,2.58-1.34,1.34-2.58-2.58-4.87,4.87a2.24,2.24,0,0,0-.76,1.49,2,2,0,0,0,.66,1.43,2.77,2.77,0,0,0,1.7.85Z" transform="translate(-22.31 -158.8)"/><path class="cls-9" d="M903.75,707.46a5.51,5.51,0,0,1-1.9,3.92l-5.18,5.18L895,714.93l5-5a3.9,3.9,0,0,0,1.34-2.6,3.35,3.35,0,0,0-1.14-2.46,3.93,3.93,0,0,0-2.85-1.31,4.28,4.28,0,0,0-3,1.45l-4.64,4.63L888.13,708l12.6-12.59,1.63,1.63-4.87,4.87a4.78,4.78,0,0,1,2.33.33,6.46,6.46,0,0,1,2.2,1.49A5.25,5.25,0,0,1,903.75,707.46Z" transform="translate(-22.31 -158.8)"/><rect class="cls-10" x="650.68" y="274.2" width="51.95" height="175" rx="25.97" ry="25.97"/><rect class="cls-11" x="714.81" y="131.2" width="51.95" height="318" rx="25.97" ry="25.97"/><rect class="cls-12" x="778.75" y="80.2" width="51.95" height="369" rx="25.97" ry="25.97"/></svg>