<svg id="today" xmlns="http://www.w3.org/2000/svg" xmlns:xlink="http://www.w3.org/1999/xlink" viewBox="0 0 657.28 547.79"><defs><style>.cls-1{fill:#06040c;}.cls-2,.cls-3,.cls-4,.cls-5{stroke-miterlimit:10;}.cls-2{fill:url(#linear-gradient);stroke:url(#linear-gradient-2);}.cls-3{fill:url(#linear-gradient-3);stroke:url(#linear-gradient-4);}.cls-4{fill:url(#linear-gradient-5);stroke:url(#linear-gradient-6);}.cls-5{fill:url(#linear-gradient-7);stroke:url(#linear-gradient-8);}</style><linearGradient id="linear-gradient" x1="255.45" y1="763.7" x2="774.14" y2="245.01" gradientUnits="userSpaceOnUse"><stop offset="0" stop-color="#624cc1"/><stop offset="1" stop-color="#00d1b2"/></linearGradient><linearGradient id="linear-gradient-2" x1="473.93" y1="544.99" x2="653.36" y2="365.57" xlink:href="#linear-gradient"/><linearGradient id="linear-gradient-3" x1="285.65" y1="539.71" x2="768.3" y2="57.06" xlink:href="#linear-gradient"/><linearGradient id="linear-gradient-4" x1="336.67" y1="488.68" x2="497.74" y2="327.62" xlink:href="#linear-gradient"/><linearGradient id="linear-gradient-5" x1="371.55" y1="620.78" x2="852.97" y2="139.36" xlink:href="#linear-gradient"/><linearGradient id="linear-gradient-6" x1="604.72" y1="387.68" x2="765.71" y2="226.7" xlink:href="#linear-gradient"/><linearGradient id="linear-gradient-7" x1="248.43" y1="406.41" x2="754.89" y2="-100.05" xlink:href="#linear-gradient"/><linearGradient id="linear-gradient-8" x1="305.88" y1="348.97" x2="587.71" y2="67.14" xlink:href="#linear-gradient"/></defs><title>today</title><path class="cls-1" d="M265.71,65.89H260V63.8h13.9v2.09h-5.76V80.6h-2.38Z" transform="translate(-224.6 -63.8)"/><path class="cls-1" d="M300,63.8l-5.62,16.8h-2.52l-4.58-13.41L282.7,80.6h-2.57l-5.61-16.8H277l4.54,13.66,4.72-13.66h2.21l4.64,13.73,4.63-13.73Z" transform="translate(-224.6 -63.8)"/><path class="cls-1" d="M307.85,63.8V80.6h-2.37V65.89h-3.79V63.8Z" transform="translate(-224.6 -63.8)"/><path class="cls-1" d="M246.25,107.32v2.08H234.18v-1.63l6.84-6.6a8.32,8.32,0,0,0,1.68-2.07,4.11,4.11,0,0,0,.43-1.77,2.46,2.46,0,0,0-.93-2,4.16,4.16,0,0,0-2.65-.73,5.29,5.29,0,0,0-4.3,1.82L233.62,95a6.64,6.64,0,0,1,2.58-1.88,9.31,9.31,0,0,1,3.57-.67,6.49,6.49,0,0,1,4.2,1.26,4.16,4.16,0,0,1,1.56,3.42,5.88,5.88,0,0,1-.58,2.55,10,10,0,0,1-2.18,2.73l-5.14,4.95Z" transform="translate(-224.6 -63.8)"/><path class="cls-1" d="M251.47,108.58a6.84,6.84,0,0,1-2.44-3,12.36,12.36,0,0,1,0-9.21,6.84,6.84,0,0,1,2.44-3,6.6,6.6,0,0,1,7,0,6.77,6.77,0,0,1,2.44,3,12.36,12.36,0,0,1,0,9.21,6.77,6.77,0,0,1-2.44,3,6.6,6.6,0,0,1-7,0Zm6.77-2.78a8.09,8.09,0,0,0,1.21-4.8,8.14,8.14,0,0,0-1.21-4.8,4,4,0,0,0-6.48,0,8.06,8.06,0,0,0-1.22,4.8,8,8,0,0,0,1.22,4.8,4,4,0,0,0,6.48,0Z" transform="translate(-224.6 -63.8)"/><path class="cls-1" d="M267.48,108.58a6.77,6.77,0,0,1-2.44-3,12.36,12.36,0,0,1,0-9.21,6.77,6.77,0,0,1,2.44-3,6.6,6.6,0,0,1,7,0,6.84,6.84,0,0,1,2.44,3,12.49,12.49,0,0,1,0,9.21,6.84,6.84,0,0,1-2.44,3,6.6,6.6,0,0,1-7,0Zm6.76-2.78a8,8,0,0,0,1.22-4.8,8.06,8.06,0,0,0-1.22-4.8A3.79,3.79,0,0,0,271,94.55a3.84,3.84,0,0,0-3.26,1.65,8.14,8.14,0,0,0-1.21,4.8,8.09,8.09,0,0,0,1.21,4.8,3.82,3.82,0,0,0,3.26,1.66A3.78,3.78,0,0,0,274.24,105.8Z" transform="translate(-224.6 -63.8)"/><path class="cls-1" d="M286.13,103.48l-2.64,2.44v3.48h-2.3V91.6h2.3V103l6.94-6.34h2.78l-5.35,5.26,5.88,7.46h-2.83Z" transform="translate(-224.6 -63.8)"/><path class="cls-1" d="M319.83,92.6l-5.61,16.8H311.7L307.11,96l-4.58,13.41H300l-5.62-16.8h2.48l4.53,13.66,4.73-13.66h2.21l4.63,13.73,4.63-13.73Z" transform="translate(-224.6 -63.8)"/><path class="cls-1" d="M333.43,98a5.52,5.52,0,0,1,1.42,4.11v7.32h-2.3v-7.05a3.94,3.94,0,0,0-.89-2.79,3.35,3.35,0,0,0-2.54-.93,4,4,0,0,0-2.95,1.09,4.26,4.26,0,0,0-1.08,3.13v6.55h-2.31V91.6h2.31v6.88A4.72,4.72,0,0,1,327,97.07a6.42,6.42,0,0,1,2.6-.51A5.27,5.27,0,0,1,333.43,98Z" transform="translate(-224.6 -63.8)"/><path class="cls-1" d="M247.93,540.21a7.48,7.48,0,0,1-2.78-1.53l.89-1.87a7.12,7.12,0,0,0,2.46,1.4,8.83,8.83,0,0,0,3.09.55,5.58,5.58,0,0,0,3.12-.71,2.2,2.2,0,0,0,1-1.89,1.85,1.85,0,0,0-.57-1.4,3.71,3.71,0,0,0-1.39-.83c-.55-.19-1.33-.41-2.34-.65a23,23,0,0,1-3.06-.91,5.05,5.05,0,0,1-2-1.4,3.77,3.77,0,0,1-.83-2.56,4.34,4.34,0,0,1,.71-2.42,4.85,4.85,0,0,1,2.15-1.73,8.74,8.74,0,0,1,3.58-.65,11.1,11.1,0,0,1,2.92.39,7.72,7.72,0,0,1,2.48,1.1l-.8,1.92a8.75,8.75,0,0,0-4.6-1.37,5.11,5.11,0,0,0-3.06.75,2.24,2.24,0,0,0-1,1.92,1.85,1.85,0,0,0,.57,1.4,4,4,0,0,0,1.43.84c.57.2,1.34.41,2.31.64a21.48,21.48,0,0,1,3.05.91,5.1,5.1,0,0,1,2,1.39,3.66,3.66,0,0,1,.83,2.52,4.29,4.29,0,0,1-.72,2.41,4.81,4.81,0,0,1-2.18,1.73,9.14,9.14,0,0,1-3.6.63A11.49,11.49,0,0,1,247.93,540.21Z" transform="translate(-224.6 -63.8)"/><path class="cls-1" d="M273.28,525.36a5.88,5.88,0,0,1,0,8.6,7.78,7.78,0,0,1-5.13,1.56H264v5.08h-2.4V523.8h6.56A7.78,7.78,0,0,1,273.28,525.36Zm-1.73,7.1a3.87,3.87,0,0,0,0-5.6,5.4,5.4,0,0,0-3.48-1H264v7.54h4.08A5.46,5.46,0,0,0,271.55,532.46Z" transform="translate(-224.6 -63.8)"/><path class="cls-1" d="M289.24,538.52v2.08H277.17V539l6.84-6.6a8.16,8.16,0,0,0,1.68-2.08,3.9,3.9,0,0,0,.43-1.76,2.48,2.48,0,0,0-.92-2,4.18,4.18,0,0,0-2.65-.73,5.29,5.29,0,0,0-4.3,1.82l-1.63-1.41a6.5,6.5,0,0,1,2.58-1.88,9.22,9.22,0,0,1,3.56-.67,6.49,6.49,0,0,1,4.2,1.26,4.16,4.16,0,0,1,1.56,3.42,5.87,5.87,0,0,1-.57,2.55,10.3,10.3,0,0,1-2.19,2.73l-5.13,4.95Z" transform="translate(-224.6 -63.8)"/><path class="cls-1" d="M235.83,561.18a4.45,4.45,0,0,1,1.3,3.28,4.82,4.82,0,0,1-.72,2.6,4.92,4.92,0,0,1-2.15,1.85,8,8,0,0,1-3.49.69,10.85,10.85,0,0,1-3.46-.55,7.08,7.08,0,0,1-2.71-1.5l1.1-1.89a6.45,6.45,0,0,0,2.21,1.31,8.46,8.46,0,0,0,2.86.49,4.68,4.68,0,0,0,2.91-.79,2.6,2.6,0,0,0,1-2.19,2.56,2.56,0,0,0-1-2.16,5.18,5.18,0,0,0-3.11-.77h-1.35v-1.67l4.23-5.19h-8.09V552.6h11.09v1.64l-4.4,5.42A6,6,0,0,1,235.83,561.18Z" transform="translate(-224.6 -63.8)"/><path class="cls-1" d="M249.44,561.18a4.44,4.44,0,0,1,1.29,3.28,4.81,4.81,0,0,1-.71,2.6,4.92,4.92,0,0,1-2.15,1.85,8,8,0,0,1-3.49.69,10.76,10.76,0,0,1-3.46-.55,7,7,0,0,1-2.71-1.5l1.1-1.89a6.45,6.45,0,0,0,2.21,1.31,8.42,8.42,0,0,0,2.86.49,4.72,4.72,0,0,0,2.91-.79,2.59,2.59,0,0,0,1-2.19,2.55,2.55,0,0,0-1-2.16,5.23,5.23,0,0,0-3.12-.77h-1.34v-1.67l4.22-5.19H239V552.6h11.08v1.64l-4.39,5.42A6,6,0,0,1,249.44,561.18Z" transform="translate(-224.6 -63.8)"/><path class="cls-1" d="M258.94,563.47l-2.64,2.45v3.48H254V551.6h2.3V563l6.94-6.34H266l-5.35,5.26,5.88,7.46h-2.83Z" transform="translate(-224.6 -63.8)"/><path class="cls-1" d="M292.64,552.6,287,569.4H284.5L279.92,556l-4.59,13.41h-2.56l-5.62-16.8h2.47l4.54,13.66,4.73-13.66h2.2l4.64,13.73,4.63-13.73Z" transform="translate(-224.6 -63.8)"/><path class="cls-1" d="M306.23,558a5.48,5.48,0,0,1,1.43,4.11v7.32h-2.3v-7a3.94,3.94,0,0,0-.89-2.79,3.35,3.35,0,0,0-2.54-.93,4,4,0,0,0-3,1.09,4.26,4.26,0,0,0-1.08,3.13v6.55h-2.3V551.6h2.3v6.88a4.75,4.75,0,0,1,1.89-1.41,6.38,6.38,0,0,1,2.6-.51A5.23,5.23,0,0,1,306.23,558Z" transform="translate(-224.6 -63.8)"/><path class="cls-1" d="M659.31,582.21a7.43,7.43,0,0,1-2.77-1.53l.89-1.87a7.12,7.12,0,0,0,2.46,1.4,8.82,8.82,0,0,0,3.08.55,5.59,5.59,0,0,0,3.13-.71,2.2,2.2,0,0,0,1-1.89,1.85,1.85,0,0,0-.57-1.4,3.71,3.71,0,0,0-1.39-.83c-.55-.19-1.33-.41-2.34-.65a23,23,0,0,1-3.06-.91,5,5,0,0,1-2-1.4,3.77,3.77,0,0,1-.83-2.56,4.34,4.34,0,0,1,.71-2.42,4.85,4.85,0,0,1,2.15-1.73,8.73,8.73,0,0,1,3.57-.65,11.12,11.12,0,0,1,2.93.39,7.66,7.66,0,0,1,2.47,1.1L668,569a8.82,8.82,0,0,0-4.61-1.37,5.15,5.15,0,0,0-3.06.75,2.26,2.26,0,0,0-1,1.92,1.85,1.85,0,0,0,.58,1.4,4,4,0,0,0,1.43.84c.57.2,1.34.41,2.31.64a21.89,21.89,0,0,1,3,.91,5.1,5.1,0,0,1,2,1.39,3.66,3.66,0,0,1,.83,2.52,4.29,4.29,0,0,1-.72,2.41,4.81,4.81,0,0,1-2.18,1.73,9.16,9.16,0,0,1-3.61.63A11.58,11.58,0,0,1,659.31,582.21Z" transform="translate(-224.6 -63.8)"/><path class="cls-1" d="M684.67,567.36a5.88,5.88,0,0,1,0,8.6,7.78,7.78,0,0,1-5.13,1.56h-4.16v5.08H673V565.8h6.56A7.78,7.78,0,0,1,684.67,567.36Zm-1.73,7.1a3.87,3.87,0,0,0,0-5.6,5.4,5.4,0,0,0-3.48-1h-4.08v7.54h4.08A5.46,5.46,0,0,0,682.94,574.46Z" transform="translate(-224.6 -63.8)"/><path class="cls-1" d="M694.15,565.8v16.8h-2.38V567.89H688V565.8Z" transform="translate(-224.6 -63.8)"/><path class="cls-1" d="M644.87,603.18a4.44,4.44,0,0,1,1.29,3.28,4.76,4.76,0,0,1-2.87,4.45,8,8,0,0,1-3.49.69,10.75,10.75,0,0,1-3.45-.55,7.12,7.12,0,0,1-2.72-1.5l1.11-1.89A6.35,6.35,0,0,0,637,609a8.36,8.36,0,0,0,2.85.49,4.74,4.74,0,0,0,2.92-.79,2.61,2.61,0,0,0,1-2.19,2.55,2.55,0,0,0-1-2.16,5.23,5.23,0,0,0-3.12-.77h-1.34v-1.67l4.22-5.19H634.4V594.6h11.09v1.64l-4.39,5.42A6,6,0,0,1,644.87,603.18Z" transform="translate(-224.6 -63.8)"/><path class="cls-1" d="M658.25,602.66a4.46,4.46,0,0,1,1.69,3.7,5.14,5.14,0,0,1-.71,2.68,4.76,4.76,0,0,1-2.14,1.87,8,8,0,0,1-3.51.69,10.67,10.67,0,0,1-3.43-.55,7.29,7.29,0,0,1-2.74-1.5l1.1-1.89a6.54,6.54,0,0,0,2.21,1.31,8.38,8.38,0,0,0,2.83.49,4.74,4.74,0,0,0,2.94-.8,2.84,2.84,0,0,0-.1-4.49,7.35,7.35,0,0,0-3.94-.78h-3.82l.89-8.79H659v2.09h-7.46l-.46,4.61H653C655.35,601.3,657.12,601.75,658.25,602.66Z" transform="translate(-224.6 -63.8)"/><path class="cls-1" d="M667.91,605.47l-2.64,2.45v3.48H663V593.6h2.31V605l6.93-6.34H675l-5.36,5.26,5.88,7.46h-2.83Z" transform="translate(-224.6 -63.8)"/><path class="cls-1" d="M701.6,594.6,696,611.4h-2.52L688.88,598,684.3,611.4h-2.57l-5.61-16.8h2.47l4.53,13.66,4.73-13.66h2.21l4.63,13.73,4.63-13.73Z" transform="translate(-224.6 -63.8)"/><path class="cls-1" d="M715.2,600a5.52,5.52,0,0,1,1.43,4.11v7.32h-2.31v-7a3.9,3.9,0,0,0-.89-2.79,3.35,3.35,0,0,0-2.54-.93,4,4,0,0,0-2.95,1.09,4.26,4.26,0,0,0-1.08,3.13v6.55h-2.31V593.6h2.31v6.88a4.79,4.79,0,0,1,1.88-1.41,6.47,6.47,0,0,1,2.61-.51A5.24,5.24,0,0,1,715.2,600Z" transform="translate(-224.6 -63.8)"/><path class="cls-1" d="M836.81,255.8l-5.62,16.8h-2.52l-4.58-13.41L819.5,272.6h-2.56l-5.62-16.8h2.47l4.54,13.66,4.72-13.66h2.21l4.64,13.73,4.63-13.73Z" transform="translate(-224.6 -63.8)"/><path class="cls-1" d="M843.24,257.89h-5.76V255.8h13.9v2.09h-5.76V272.6h-2.38Z" transform="translate(-224.6 -63.8)"/><path class="cls-1" d="M864.86,270.52v2.08H852.79V271l6.84-6.6a8.32,8.32,0,0,0,1.68-2.07,4,4,0,0,0,.43-1.77,2.48,2.48,0,0,0-.92-2,4.18,4.18,0,0,0-2.65-.73,5.29,5.29,0,0,0-4.3,1.82l-1.63-1.41a6.5,6.5,0,0,1,2.58-1.88,9.22,9.22,0,0,1,3.56-.67,6.49,6.49,0,0,1,4.2,1.26,4.16,4.16,0,0,1,1.56,3.42,5.87,5.87,0,0,1-.57,2.55,10.1,10.1,0,0,1-2.19,2.73l-5.13,4.95Z" transform="translate(-224.6 -63.8)"/><path class="cls-1" d="M798.62,284.6v16.8h-2.37V286.69h-3.79V284.6Z" transform="translate(-224.6 -63.8)"/><path class="cls-1" d="M807.5,284.6v16.8h-2.37V286.69h-3.8V284.6Z" transform="translate(-224.6 -63.8)"/><path class="cls-1" d="M814.5,300.58a6.84,6.84,0,0,1-2.44-3,12.36,12.36,0,0,1,0-9.21,6.84,6.84,0,0,1,2.44-3,6.6,6.6,0,0,1,7,0,6.77,6.77,0,0,1,2.44,3,12.36,12.36,0,0,1,0,9.21,6.77,6.77,0,0,1-2.44,3,6.6,6.6,0,0,1-7,0Zm6.77-2.78a10.13,10.13,0,0,0,0-9.6,4,4,0,0,0-6.48,0,10.05,10.05,0,0,0,0,9.6,4,4,0,0,0,6.48,0Z" transform="translate(-224.6 -63.8)"/><path class="cls-1" d="M833.16,295.48l-2.64,2.44v3.48h-2.31V283.6h2.31V295l6.93-6.34h2.79l-5.35,5.26,5.88,7.46h-2.84Z" transform="translate(-224.6 -63.8)"/><path class="cls-1" d="M866.85,284.6l-5.61,16.8h-2.52L854.13,288l-4.58,13.41H847l-5.61-16.8h2.47l4.54,13.66,4.72-13.66h2.21l4.63,13.73,4.63-13.73Z" transform="translate(-224.6 -63.8)"/><path class="cls-1" d="M880.45,290a5.52,5.52,0,0,1,1.43,4.11v7.32h-2.31v-7a3.94,3.94,0,0,0-.88-2.79,3.37,3.37,0,0,0-2.55-.93,4,4,0,0,0-2.95,1.09,4.26,4.26,0,0,0-1.08,3.13v6.55h-2.3V283.6h2.3v6.88a4.79,4.79,0,0,1,1.88-1.41,6.47,6.47,0,0,1,2.61-.51A5.24,5.24,0,0,1,880.45,290Z" transform="translate(-224.6 -63.8)"/><path class="cls-2" d="M490.69,560.77A226.7,226.7,0,0,0,725,438.08L522.5,336.5Z" transform="translate(-224.6 -63.8)"/><path class="cls-3" d="M275.58,348.68C283.13,455.61,364.9,542,469.69,556.77L501.5,332.5Z" transform="translate(-224.6 -63.8)"/><path class="cls-4" d="M684.71,146.88,533.5,315.5,736,417.08a226.58,226.58,0,0,0-51.27-270.2Z" transform="translate(-224.6 -63.8)"/><path class="cls-5" d="M658.71,138.88A225.63,225.63,0,0,0,507.5,81C382.41,81,281,182.41,281,307.5q0,8.16.58,16.18L507.5,307.5Z" transform="translate(-224.6 -63.8)"/></svg>